<svg id="my-svg" width="100%" xmlns="http://www.w3.org/2000/svg" xmlns:xlink="http://www.w3.org/1999/xlink" style="max-width: 1151.44px; background-color: transparent;" viewBox="-40 -40 1151.4375 744" role="graphics-document document" aria-roledescription="flowchart-v2"><style>#my-svg{font-family:Inter,Arial,sans-serif;font-size:14px;fill:#eaf4f3;}#my-svg .error-icon{fill:#14262c;}#my-svg .error-text{fill:#ebd9d3;stroke:#ebd9d3;}#my-svg .edge-thickness-normal{stroke-width:2px;}#my-svg .edge-thickness-thick{stroke-width:3.5px;}#my-svg .edge-pattern-solid{stroke-dasharray:0;}#my-svg .edge-pattern-dashed{stroke-dasharray:3;}#my-svg .edge-pattern-dotted{stroke-dasharray:2;}#my-svg .marker{fill:#8fa7a5;stroke:#8fa7a5;}#my-svg .marker.cross{stroke:#8fa7a5;}#my-svg svg{font-family:Inter,Arial,sans-serif;font-size:14px;}#my-svg .label{font-family:Inter,Arial,sans-serif;color:#eaf4f3;}#my-svg .cluster-label text{fill:#ebd9d3;}#my-svg .cluster-label span,#my-svg p{color:#ebd9d3;}#my-svg .label text,#my-svg span,#my-svg p{fill:#eaf4f3;color:#eaf4f3;}#my-svg .node rect,#my-svg .node circle,#my-svg .node ellipse,#my-svg .node polygon,#my-svg .node path{fill:#17272d;stroke:#82d3d7;stroke-width:1px;}#my-svg .flowchart-label text{text-anchor:middle;}#my-svg .node .katex path{fill:#000;stroke:#000;stroke-width:1px;}#my-svg .node .label{text-align:center;}#my-svg .node.clickable{cursor:pointer;}#my-svg .arrowheadPath{fill:rgba(255, 255, 255, 0);}#my-svg .edgePath .path{stroke:#8fa7a5;stroke-width:2.0px;}#my-svg .flowchart-link{stroke:#8fa7a5;fill:none;}#my-svg .edgeLabel{background-color:#17272d;text-align:center;}#my-svg .edgeLabel rect{opacity:0.5;background-color:#17272d;fill:#17272d;}#my-svg .labelBkg{background-color:rgba(23, 39, 45, 0.5);}#my-svg .cluster rect{fill:#14262c;stroke:#5b9095;stroke-width:1px;}#my-svg .cluster text{fill:#ebd9d3;}#my-svg .cluster span,#my-svg p{color:#ebd9d3;}#my-svg div.mermaidTooltip{position:absolute;text-align:center;max-width:200px;padding:2px;font-family:Inter,Arial,sans-serif;font-size:12px;background:#14262c;border:1px solid hsl(195, 0%, 2.5490196078%);border-radius:2px;pointer-events:none;z-index:100;}#my-svg .flowchartTitleText{text-anchor:middle;font-size:18px;fill:#eaf4f3;}#my-svg :root{--mermaid-font-family:"trebuchet ms",verdana,arial,sans-serif;}#my-svg foreignObject{overflow:visible;}#my-svg .label,#my-svg .nodeLabel,#my-svg .edgeLabel{overflow:visible;}#my-svg .nodeLabel,#my-svg .edgeLabel{line-height:1.28;}</style><g><marker id="my-svg_flowchart-pointEnd" class="marker flowchart" viewBox="0 0 10 10" refX="6" refY="5" markerUnits="userSpaceOnUse" markerWidth="12" markerHeight="12" orient="auto"><path d="M 0 0 L 10 5 L 0 10 z" class="arrowMarkerPath" style="stroke-width: 1; stroke-dasharray: 1, 0;"/></marker><marker id="my-svg_flowchart-pointStart" class="marker flowchart" viewBox="0 0 10 10" refX="4.5" refY="5" markerUnits="userSpaceOnUse" markerWidth="12" markerHeight="12" orient="auto"><path d="M 0 5 L 10 10 L 10 0 z" class="arrowMarkerPath" style="stroke-width: 1; stroke-dasharray: 1, 0;"/></marker><marker id="my-svg_flowchart-circleEnd" class="marker flowchart" viewBox="0 0 10 10" refX="11" refY="5" markerUnits="userSpaceOnUse" markerWidth="11" markerHeight="11" orient="auto"><circle cx="5" cy="5" r="5" class="arrowMarkerPath" style="stroke-width: 1; stroke-dasharray: 1, 0;"/></marker><marker id="my-svg_flowchart-circleStart" class="marker flowchart" viewBox="0 0 10 10" refX="-1" refY="5" markerUnits="userSpaceOnUse" markerWidth="11" markerHeight="11" orient="auto"><circle cx="5" cy="5" r="5" class="arrowMarkerPath" style="stroke-width: 1; stroke-dasharray: 1, 0;"/></marker><marker id="my-svg_flowchart-crossEnd" class="marker cross flowchart" viewBox="0 0 11 11" refX="12" refY="5.2" markerUnits="userSpaceOnUse" markerWidth="11" markerHeight="11" orient="auto"><path d="M 1,1 l 9,9 M 10,1 l -9,9" class="arrowMarkerPath" style="stroke-width: 2; stroke-dasharray: 1, 0;"/></marker><marker id="my-svg_flowchart-crossStart" class="marker cross flowchart" viewBox="0 0 11 11" refX="-1" refY="5.2" markerUnits="userSpaceOnUse" markerWidth="11" markerHeight="11" orient="auto"><path d="M 1,1 l 9,9 M 10,1 l -9,9" class="arrowMarkerPath" style="stroke-width: 2; stroke-dasharray: 1, 0;"/></marker><g class="root"><g class="clusters"/><g class="edgePaths"><path d="M39,521L44.333,521C49.667,521,60.333,521,70.117,521C79.9,521,88.8,521,93.25,521L97.7,521" id="L-User-Frontend-0" class=" edge-thickness-normal edge-pattern-solid flowchart-link LS-User LE-Frontend" style="fill:none;" marker-end="url(#my-svg_flowchart-pointEnd)"/><path d="M167.483,496L179.072,474.5C190.661,453,213.838,410,229.877,388.5C245.916,367,254.816,367,259.266,367L263.716,367" id="L-Frontend-StreamAPI-0" class=" edge-thickness-normal edge-pattern-solid flowchart-link LS-Frontend LE-StreamAPI" style="fill:none;" marker-end="url(#my-svg_flowchart-pointEnd)"/><path d="M171.594,546L182.498,561.5C193.401,577,215.208,608,246.24,623.5C277.271,639,317.526,639,357.781,639C398.036,639,438.292,639,476.341,639C514.391,639,550.234,639,586.078,639C621.922,639,657.766,639,680.137,639C702.509,639,711.409,639,715.859,639L720.309,639" id="L-Frontend-EduAPI-0" class=" edge-thickness-normal edge-pattern-solid flowchart-link LS-Frontend LE-EduAPI" style="fill:none;" marker-end="url(#my-svg_flowchart-pointEnd)"/><path d="M372.022,342L389.777,310.833C407.531,279.667,443.039,217.333,467.705,186.167C492.371,155,506.196,155,513.108,155L520.02,155" id="L-StreamAPI-Supervisor-0" class=" edge-thickness-normal edge-pattern-solid flowchart-link LS-StreamAPI LE-Supervisor" style="fill:none;" marker-end="url(#my-svg_flowchart-pointEnd)"/><path d="M605.558,130L620.234,111.167C634.909,92.333,664.259,54.667,687.303,35.833C710.348,17,727.086,17,735.456,17L743.825,17" id="L-Supervisor-Daiyu-0" class=" edge-thickness-normal edge-pattern-solid flowchart-link LS-Supervisor LE-Daiyu" style="fill:none;" marker-end="url(#my-svg_flowchart-pointEnd)"/><path d="M616.627,180L629.457,190.5C642.288,201,667.949,222,685.485,232.5C703.022,243,712.435,243,717.142,243L721.848,243" id="L-Supervisor-Classics-0" class=" edge-thickness-normal edge-pattern-solid flowchart-link LS-Supervisor LE-Classics" style="fill:none;" marker-end="url(#my-svg_flowchart-pointEnd)"/><path d="M644.519,130L652.701,126.5C660.882,123,677.246,116,692.922,112.5C708.598,109,723.586,109,731.081,109L738.575,109" id="L-Supervisor-Interview-0" class=" edge-thickness-normal edge-pattern-solid flowchart-link LS-Supervisor LE-Interview" style="fill:none;" marker-end="url(#my-svg_flowchart-pointEnd)"/><path d="M599.52,180L615.201,209.167C630.883,238.333,662.246,296.667,685.422,325.833C708.598,355,723.586,355,731.081,355L738.575,355" id="L-Supervisor-Assistant-0" class=" edge-thickness-normal edge-pattern-solid flowchart-link LS-Supervisor LE-Assistant" style="fill:none;" marker-end="url(#my-svg_flowchart-pointEnd)"/><path d="M839.109,17L848.362,17C857.615,17,876.12,17,898.736,28.264C921.353,39.528,948.081,62.056,961.445,73.32L974.809,84.584" id="L-Daiyu-LLM-0" class=" edge-thickness-normal edge-pattern-solid flowchart-link LS-Daiyu LE-LLM" style="fill:none;" marker-end="url(#my-svg_flowchart-pointEnd)"/><path d="M844.359,109L852.737,109C861.115,109,877.87,109,891.992,108.78C906.115,108.56,917.605,108.12,923.35,107.9L929.095,107.679" id="L-Interview-LLM-0" class=" edge-thickness-normal edge-pattern-solid flowchart-link LS-Interview LE-LLM" style="fill:none;" marker-end="url(#my-svg_flowchart-pointEnd)"/><path d="M807.466,338L821.992,319.5C836.519,301,865.572,264,894.5,228.671C923.429,193.342,952.233,159.685,966.635,142.856L981.037,126.027" id="L-Assistant-LLM-0" class=" edge-thickness-normal edge-pattern-solid flowchart-link LS-Assistant LE-LLM" style="fill:none;" marker-end="url(#my-svg_flowchart-pointEnd)"/><path d="M861.086,245.665L866.676,245.888C872.266,246.11,883.445,246.555,903.83,226.656C924.214,206.757,953.803,166.513,968.598,146.392L983.392,126.27" id="L-Classics-LLM-0" class=" edge-thickness-normal edge-pattern-solid flowchart-link LS-Classics LE-LLM" style="fill:none;" marker-end="url(#my-svg_flowchart-pointEnd)"/><path d="M820.291,614L832.68,602.167C845.069,590.333,869.847,566.667,890.585,557.712C911.323,548.757,928.02,554.515,936.369,557.394L944.718,560.272" id="L-EduAPI-MySQL-0" class=" edge-thickness-normal edge-pattern-solid flowchart-link LS-EduAPI LE-MySQL" style="fill:none;" marker-end="url(#my-svg_flowchart-pointEnd)"/><path d="M801.419,372L816.953,408.167C832.488,444.333,863.556,516.667,885.567,552.213C907.577,587.759,920.53,586.519,927.006,585.899L933.482,585.278" id="L-Assistant-MySQL-0" class=" edge-thickness-normal edge-pattern-solid flowchart-link LS-Assistant LE-MySQL" style="fill:none;" marker-end="url(#my-svg_flowchart-pointEnd)"/><path d="M385.736,392L401.205,405.833C416.673,419.667,447.61,447.333,471.161,461.167C494.713,475,510.878,475,518.961,475L527.044,475" id="L-StreamAPI-Redis-0" class=" edge-thickness-normal edge-pattern-solid flowchart-link LS-StreamAPI LE-Redis" style="fill:none;" marker-end="url(#my-svg_flowchart-pointEnd)"/><path d="M372.296,392L390.005,422.5C407.713,453,443.13,514,465.288,544.5C487.447,575,496.347,575,500.797,575L505.247,575" id="L-StreamAPI-Memory-0" class=" edge-thickness-normal edge-pattern-solid flowchart-link LS-StreamAPI LE-Memory" style="fill:none;" marker-end="url(#my-svg_flowchart-pointEnd)"/><path d="M822.594,260L834.6,267.167C846.605,274.333,870.615,288.667,890.539,295.833C910.463,303,926.3,303,934.219,303L942.138,303" id="L-Classics-Chroma-0" class=" edge-thickness-normal edge-pattern-solid flowchart-link LS-Classics LE-Chroma" style="fill:none;" marker-end="url(#my-svg_flowchart-pointEnd)"/><path d="M805.358,260L820.236,282.5C835.114,305,864.869,350,884.197,372.5C903.525,395,912.425,395,916.875,395L921.325,395" id="L-Classics-FTS-0" class=" edge-thickness-normal edge-pattern-solid flowchart-link LS-Classics LE-FTS" style="fill:none;" marker-end="url(#my-svg_flowchart-pointEnd)"/><path d="M801.12,260L816.704,297.833C832.288,335.667,863.457,411.333,885.305,449.167C907.153,487,919.68,487,925.944,487L932.208,487" id="L-Classics-Reranker-0" class=" edge-thickness-normal edge-pattern-solid flowchart-link LS-Classics LE-Reranker" style="fill:none;" marker-end="url(#my-svg_flowchart-pointEnd)"/></g><g class="edgeLabels"><g class="edgeLabel"><g class="label" transform="translate(0, 0)"><foreignObject width="0" height="0"><div xmlns="http://www.w3.org/1999/xhtml" style="display: inline-block; white-space: nowrap;"><span class="edgeLabel"></span></div></foreignObject></g></g><g class="edgeLabel"><g class="label" transform="translate(0, 0)"><foreignObject width="0" height="0"><div xmlns="http://www.w3.org/1999/xhtml" style="display: inline-block; white-space: nowrap;"><span class="edgeLabel"></span></div></foreignObject></g></g><g class="edgeLabel"><g class="label" transform="translate(0, 0)"><foreignObject width="0" height="0"><div xmlns="http://www.w3.org/1999/xhtml" style="display: inline-block; white-space: nowrap;"><span class="edgeLabel"></span></div></foreignObject></g></g><g class="edgeLabel"><g class="label" transform="translate(0, 0)"><foreignObject width="0" height="0"><div xmlns="http://www.w3.org/1999/xhtml" style="display: inline-block; white-space: nowrap;"><span class="edgeLabel"></span></div></foreignObject></g></g><g class="edgeLabel"><g class="label" transform="translate(0, 0)"><foreignObject width="0" height="0"><div xmlns="http://www.w3.org/1999/xhtml" style="display: inline-block; white-space: nowrap;"><span class="edgeLabel"></span></div></foreignObject></g></g><g class="edgeLabel"><g class="label" transform="translate(0, 0)"><foreignObject width="0" height="0"><div xmlns="http://www.w3.org/1999/xhtml" style="display: inline-block; white-space: nowrap;"><span class="edgeLabel"></span></div></foreignObject></g></g><g class="edgeLabel"><g class="label" transform="translate(0, 0)"><foreignObject width="0" height="0"><div xmlns="http://www.w3.org/1999/xhtml" style="display: inline-block; white-space: nowrap;"><span class="edgeLabel"></span></div></foreignObject></g></g><g class="edgeLabel"><g class="label" transform="translate(0, 0)"><foreignObject width="0" height="0"><div xmlns="http://www.w3.org/1999/xhtml" style="display: inline-block; white-space: nowrap;"><span class="edgeLabel"></span></div></foreignObject></g></g><g class="edgeLabel"><g class="label" transform="translate(0, 0)"><foreignObject width="0" height="0"><div xmlns="http://www.w3.org/1999/xhtml" style="display: inline-block; white-space: nowrap;"><span class="edgeLabel"></span></div></foreignObject></g></g><g class="edgeLabel"><g class="label" transform="translate(0, 0)"><foreignObject width="0" height="0"><div xmlns="http://www.w3.org/1999/xhtml" style="display: inline-block; white-space: nowrap;"><span class="edgeLabel"></span></div></foreignObject></g></g><g class="edgeLabel"><g class="label" transform="translate(0, 0)"><foreignObject width="0" height="0"><div xmlns="http://www.w3.org/1999/xhtml" style="display: inline-block; white-space: nowrap;"><span class="edgeLabel"></span></div></foreignObject></g></g><g class="edgeLabel"><g class="label" transform="translate(0, 0)"><foreignObject width="0" height="0"><div xmlns="http://www.w3.org/1999/xhtml" style="display: inline-block; white-space: nowrap;"><span class="edgeLabel"></span></div></foreignObject></g></g><g class="edgeLabel"><g class="label" transform="translate(0, 0)"><foreignObject width="0" height="0"><div xmlns="http://www.w3.org/1999/xhtml" style="display: inline-block; white-space: nowrap;"><span class="edgeLabel"></span></div></foreignObject></g></g><g class="edgeLabel"><g class="label" transform="translate(0, 0)"><foreignObject width="0" height="0"><div xmlns="http://www.w3.org/1999/xhtml" style="display: inline-block; white-space: nowrap;"><span class="edgeLabel"></span></div></foreignObject></g></g><g class="edgeLabel"><g class="label" transform="translate(0, 0)"><foreignObject width="0" height="0"><div xmlns="http://www.w3.org/1999/xhtml" style="display: inline-block; white-space: nowrap;"><span class="edgeLabel"></span></div></foreignObject></g></g><g class="edgeLabel"><g class="label" transform="translate(0, 0)"><foreignObject width="0" height="0"><div xmlns="http://www.w3.org/1999/xhtml" style="display: inline-block; white-space: nowrap;"><span class="edgeLabel"></span></div></foreignObject></g></g><g class="edgeLabel"><g class="label" transform="translate(0, 0)"><foreignObject width="0" height="0"><div xmlns="http://www.w3.org/1999/xhtml" style="display: inline-block; white-space: nowrap;"><span class="edgeLabel"></span></div></foreignObject></g></g><g class="edgeLabel"><g class="label" transform="translate(0, 0)"><foreignObject width="0" height="0"><div xmlns="http://www.w3.org/1999/xhtml" style="display: inline-block; white-space: nowrap;"><span class="edgeLabel"></span></div></foreignObject></g></g><g class="edgeLabel"><g class="label" transform="translate(0, 0)"><foreignObject width="0" height="0"><div xmlns="http://www.w3.org/1999/xhtml" style="display: inline-block; white-space: nowrap;"><span class="edgeLabel"></span></div></foreignObject></g></g></g><g class="nodes"><g class="node default default flowchart-label" id="flowchart-User-0" data-node="true" data-id="User" transform="translate(19.5, 521)"><rect class="basic label-container" style="" rx="0" ry="0" x="-19.5" y="-17" width="39" height="34"/><g class="label" style="" transform="translate(-10.5, -8)"><rect/><foreignObject width="21" height="16"><div xmlns="http://www.w3.org/1999/xhtml" style="display: inline-block; white-space: nowrap;"><span class="nodeLabel">用户</span></div></foreignObject></g></g><g class="node default default flowchart-label" id="flowchart-Frontend-1" data-node="true" data-id="Frontend" transform="translate(154.0078125, 521)"><rect class="basic label-container" style="" rx="0" ry="0" x="-51.0078125" y="-25" width="102.015625" height="50"/><g class="label" style="" transform="translate(-42.0078125, -16)"><rect/><foreignObject width="84.015625" height="32"><div xmlns="http://www.w3.org/1999/xhtml" style="display: inline-block; white-space: nowrap;"><span class="nodeLabel">Vue 前端<br />统一 AI 对话入口</span></div></foreignObject></g></g><g class="node default default flowchart-label" id="flowchart-StreamAPI-3" data-node="true" data-id="StreamAPI" transform="translate(357.78125, 367)"><rect class="basic label-container" style="" rx="0" ry="0" x="-88.765625" y="-25" width="177.53125" height="50"/><g class="label" style="" transform="translate(-79.765625, -16)"><rect/><foreignObject width="159.53125" height="32"><div xmlns="http://www.w3.org/1999/xhtml" style="display: inline-block; white-space: nowrap;"><span class="nodeLabel">统一 AI 流式接口<br />/api/ai/unified/chat/stream</span></div></foreignObject></g></g><g class="node default default flowchart-label" id="flowchart-EduAPI-5" data-node="true" data-id="EduAPI" transform="translate(794.1171875, 639)"><rect class="basic label-container" style="" rx="0" ry="0" x="-68.5078125" y="-25" width="137.015625" height="50"/><g class="label" style="" transform="translate(-59.5078125, -16)"><rect/><foreignObject width="119.015625" height="32"><div xmlns="http://www.w3.org/1999/xhtml" style="display: inline-block; white-space: nowrap;"><span class="nodeLabel">教务业务接口<br />学生 / 教师 / 班级 / 成绩</span></div></foreignObject></g></g><g class="node default default flowchart-label" id="flowchart-Supervisor-7" data-node="true" data-id="Supervisor" transform="translate(586.078125, 155)"><rect class="basic label-container" style="" rx="0" ry="0" x="-60.7578125" y="-25" width="121.515625" height="50"/><g class="label" style="" transform="translate(-51.7578125, -16)"><rect/><foreignObject width="103.515625" height="32"><div xmlns="http://www.w3.org/1999/xhtml" style="display: inline-block; white-space: nowrap;"><span class="nodeLabel">SupervisorAgent<br />意图识别与分流</span></div></foreignObject></g></g><g class="node default default flowchart-label" id="flowchart-Daiyu-9" data-node="true" data-id="Daiyu" transform="translate(794.1171875, 17)"><rect class="basic label-container" style="" rx="0" ry="0" x="-44.9921875" y="-17" width="89.984375" height="34"/><g class="label" style="" transform="translate(-35.9921875, -8)"><rect/><foreignObject width="71.984375" height="16"><div xmlns="http://www.w3.org/1999/xhtml" style="display: inline-block; white-space: nowrap;"><span class="nodeLabel">林黛玉 Agent</span></div></foreignObject></g></g><g class="node default default flowchart-label" id="flowchart-Classics-11" data-node="true" data-id="Classics" transform="translate(794.1171875, 243)"><rect class="basic label-container" style="" rx="0" ry="0" x="-66.96875" y="-17" width="133.9375" height="34"/><g class="label" style="" transform="translate(-57.96875, -8)"><rect/><foreignObject width="115.9375" height="16"><div xmlns="http://www.w3.org/1999/xhtml" style="display: inline-block; white-space: nowrap;"><span class="nodeLabel">四大名著 RAG Agent</span></div></foreignObject></g></g><g class="node default default flowchart-label" id="flowchart-Interview-13" data-node="true" data-id="Interview" transform="translate(794.1171875, 109)"><rect class="basic label-container" style="" rx="0" ry="0" x="-50.2421875" y="-17" width="100.484375" height="34"/><g class="label" style="" transform="translate(-41.2421875, -8)"><rect/><foreignObject width="82.484375" height="16"><div xmlns="http://www.w3.org/1999/xhtml" style="display: inline-block; white-space: nowrap;"><span class="nodeLabel">模拟面试 Agent</span></div></foreignObject></g></g><g class="node default default flowchart-label" id="flowchart-Assistant-15" data-node="true" data-id="Assistant" transform="translate(794.1171875, 355)"><rect class="basic label-container" style="" rx="0" ry="0" x="-50.2421875" y="-17" width="100.484375" height="34"/><g class="label" style="" transform="translate(-41.2421875, -8)"><rect/><foreignObject width="82.484375" height="16"><div xmlns="http://www.w3.org/1999/xhtml" style="display: inline-block; white-space: nowrap;"><span class="nodeLabel">教务助手 Agent</span></div></foreignObject></g></g><g class="node default default flowchart-label" id="flowchart-LLM-17" data-node="true" data-id="LLM" transform="translate(999.03125, 105)"><rect class="basic label-container" style="" rx="0" ry="0" x="-64.640625" y="-17" width="129.28125" height="34"/><g class="label" style="" transform="translate(-55.640625, -8)"><rect/><foreignObject width="111.28125" height="16"><div xmlns="http://www.w3.org/1999/xhtml" style="display: inline-block; white-space: nowrap;"><span class="nodeLabel">DeepSeek 模型服务</span></div></foreignObject></g></g><g class="node default default flowchart-label" id="flowchart-MySQL-25" data-node="true" data-id="MySQL" transform="translate(999.03125, 579)"><rect class="basic label-container" style="" rx="0" ry="0" x="-60.2734375" y="-17" width="120.546875" height="34"/><g class="label" style="" transform="translate(-51.2734375, -8)"><rect/><foreignObject width="102.546875" height="16"><div xmlns="http://www.w3.org/1999/xhtml" style="display: inline-block; white-space: nowrap;"><span class="nodeLabel">MySQL 业务数据库</span></div></foreignObject></g></g><g class="node default default flowchart-label" id="flowchart-Redis-29" data-node="true" data-id="Redis" transform="translate(586.078125, 475)"><rect class="basic label-container" style="" rx="0" ry="0" x="-53.734375" y="-17" width="107.46875" height="34"/><g class="label" style="" transform="translate(-44.734375, -8)"><rect/><foreignObject width="89.46875" height="16"><div xmlns="http://www.w3.org/1999/xhtml" style="display: inline-block; white-space: nowrap;"><span class="nodeLabel">Redis / 会话缓存</span></div></foreignObject></g></g><g class="node default default flowchart-label" id="flowchart-Memory-31" data-node="true" data-id="Memory" transform="translate(586.078125, 575)"><rect class="basic label-container" style="" rx="0" ry="0" x="-75.53125" y="-25" width="151.0625" height="50"/><g class="label" style="" transform="translate(-66.53125, -16)"><rect/><foreignObject width="133.0625" height="32"><div xmlns="http://www.w3.org/1999/xhtml" style="display: inline-block; white-space: nowrap;"><span class="nodeLabel">ConversationMemory<br />会话历史</span></div></foreignObject></g></g><g class="node default default flowchart-label" id="flowchart-Chroma-33" data-node="true" data-id="Chroma" transform="translate(999.03125, 303)"><rect class="basic label-container" style="" rx="0" ry="0" x="-51.59375" y="-17" width="103.1875" height="34"/><g class="label" style="" transform="translate(-42.59375, -8)"><rect/><foreignObject width="85.1875" height="16"><div xmlns="http://www.w3.org/1999/xhtml" style="display: inline-block; white-space: nowrap;"><span class="nodeLabel">Chroma 向量库</span></div></foreignObject></g></g><g class="node default default flowchart-label" id="flowchart-FTS-35" data-node="true" data-id="FTS" transform="translate(999.03125, 395)"><rect class="basic label-container" style="" rx="0" ry="0" x="-72.40625" y="-17" width="144.8125" height="34"/><g class="label" style="" transform="translate(-63.40625, -8)"><rect/><foreignObject width="126.8125" height="16"><div xmlns="http://www.w3.org/1999/xhtml" style="display: inline-block; white-space: nowrap;"><span class="nodeLabel">SQLite FTS5 全文索引</span></div></foreignObject></g></g><g class="node default default flowchart-label" id="flowchart-Reranker-37" data-node="true" data-id="Reranker" transform="translate(999.03125, 487)"><rect class="basic label-container" style="" rx="0" ry="0" x="-61.5234375" y="-17" width="123.046875" height="34"/><g class="label" style="" transform="translate(-52.5234375, -8)"><rect/><foreignObject width="105.046875" height="16"><div xmlns="http://www.w3.org/1999/xhtml" style="display: inline-block; white-space: nowrap;"><span class="nodeLabel">bge-reranker 精排</span></div></foreignObject></g></g></g></g></g></svg>