<svg id="my-svg" width="100%" xmlns="http://www.w3.org/2000/svg" xmlns:xlink="http://www.w3.org/1999/xlink" style="max-width: 629.953px; background-color: transparent;" viewBox="-8 -8 629.953125 886" role="graphics-document document" aria-roledescription="flowchart-v2"><style>#my-svg{font-family:Inter,Arial,sans-serif;font-size:16px;fill:#0f2732;}#my-svg .error-icon{fill:#f8f0df;}#my-svg .error-text{fill:#070f20;stroke:#070f20;}#my-svg .edge-thickness-normal{stroke-width:2px;}#my-svg .edge-thickness-thick{stroke-width:3.5px;}#my-svg .edge-pattern-solid{stroke-dasharray:0;}#my-svg .edge-pattern-dashed{stroke-dasharray:3;}#my-svg .edge-pattern-dotted{stroke-dasharray:2;}#my-svg .marker{fill:#8a7b6b;stroke:#8a7b6b;}#my-svg .marker.cross{stroke:#8a7b6b;}#my-svg svg{font-family:Inter,Arial,sans-serif;font-size:16px;}#my-svg .label{font-family:Inter,Arial,sans-serif;color:#0f2732;}#my-svg .cluster-label text{fill:#070f20;}#my-svg .cluster-label span,#my-svg p{color:#070f20;}#my-svg .label text,#my-svg span,#my-svg p{fill:#0f2732;color:#0f2732;}#my-svg .node rect,#my-svg .node circle,#my-svg .node ellipse,#my-svg .node polygon,#my-svg .node path{fill:#fffaf2;stroke:#0a7080;stroke-width:1px;}#my-svg .flowchart-label text{text-anchor:middle;}#my-svg .node .katex path{fill:#000;stroke:#000;stroke-width:1px;}#my-svg .node .label{text-align:center;}#my-svg .node.clickable{cursor:pointer;}#my-svg .arrowheadPath{fill:rgba(255, 255, 255, 0);}#my-svg .edgePath .path{stroke:#8a7b6b;stroke-width:2.0px;}#my-svg .flowchart-link{stroke:#8a7b6b;fill:none;}#my-svg .edgeLabel{background-color:#eef7f5;text-align:center;}#my-svg .edgeLabel rect{opacity:0.5;background-color:#eef7f5;fill:#eef7f5;}#my-svg .labelBkg{background-color:rgba(238, 247, 245, 0.5);}#my-svg .cluster rect{fill:#f8f0df;stroke:hsl(40.8, 24.1025641026%, 82.3529411765%);stroke-width:1px;}#my-svg .cluster text{fill:#070f20;}#my-svg .cluster span,#my-svg p{color:#070f20;}#my-svg div.mermaidTooltip{position:absolute;text-align:center;max-width:200px;padding:2px;font-family:Inter,Arial,sans-serif;font-size:12px;background:#f8f0df;border:1px solid hsl(40.8, 24.1025641026%, 82.3529411765%);border-radius:2px;pointer-events:none;z-index:100;}#my-svg .flowchartTitleText{text-anchor:middle;font-size:18px;fill:#0f2732;}#my-svg :root{--mermaid-font-family:"trebuchet ms",verdana,arial,sans-serif;}</style><g><marker id="my-svg_flowchart-pointEnd" class="marker flowchart" viewBox="0 0 10 10" refX="6" refY="5" markerUnits="userSpaceOnUse" markerWidth="12" markerHeight="12" orient="auto"><path d="M 0 0 L 10 5 L 0 10 z" class="arrowMarkerPath" style="stroke-width: 1; stroke-dasharray: 1, 0;"/></marker><marker id="my-svg_flowchart-pointStart" class="marker flowchart" viewBox="0 0 10 10" refX="4.5" refY="5" markerUnits="userSpaceOnUse" markerWidth="12" markerHeight="12" orient="auto"><path d="M 0 5 L 10 10 L 10 0 z" class="arrowMarkerPath" style="stroke-width: 1; stroke-dasharray: 1, 0;"/></marker><marker id="my-svg_flowchart-circleEnd" class="marker flowchart" viewBox="0 0 10 10" refX="11" refY="5" markerUnits="userSpaceOnUse" markerWidth="11" markerHeight="11" orient="auto"><circle cx="5" cy="5" r="5" class="arrowMarkerPath" style="stroke-width: 1; stroke-dasharray: 1, 0;"/></marker><marker id="my-svg_flowchart-circleStart" class="marker flowchart" viewBox="0 0 10 10" refX="-1" refY="5" markerUnits="userSpaceOnUse" markerWidth="11" markerHeight="11" orient="auto"><circle cx="5" cy="5" r="5" class="arrowMarkerPath" style="stroke-width: 1; stroke-dasharray: 1, 0;"/></marker><marker id="my-svg_flowchart-crossEnd" class="marker cross flowchart" viewBox="0 0 11 11" refX="12" refY="5.2" markerUnits="userSpaceOnUse" markerWidth="11" markerHeight="11" orient="auto"><path d="M 1,1 l 9,9 M 10,1 l -9,9" class="arrowMarkerPath" style="stroke-width: 2; stroke-dasharray: 1, 0;"/></marker><marker id="my-svg_flowchart-crossStart" class="marker cross flowchart" viewBox="0 0 11 11" refX="-1" refY="5.2" markerUnits="userSpaceOnUse" markerWidth="11" markerHeight="11" orient="auto"><path d="M 1,1 l 9,9 M 10,1 l -9,9" class="arrowMarkerPath" style="stroke-width: 2; stroke-dasharray: 1, 0;"/></marker><g class="root"><g class="clusters"/><g class="edgePaths"><path d="M325.43,33L325.43,37.167C325.43,41.333,325.43,49.667,325.43,57.117C325.43,64.567,325.43,71.133,325.43,74.417L325.43,77.7" id="L-Q-Book-0" class=" edge-thickness-normal edge-pattern-solid flowchart-link LS-Q LE-Book" style="fill:none;" marker-end="url(#my-svg_flowchart-pointEnd)"/><path d="M231.922,129.239L209.557,134.199C187.193,139.159,142.464,149.08,120.099,157.323C97.734,165.567,97.734,172.133,97.734,175.417L97.734,178.7" id="L-Book-Dense-0" class=" edge-thickness-normal edge-pattern-solid flowchart-link LS-Book LE-Dense" style="fill:none;" marker-end="url(#my-svg_flowchart-pointEnd)"/><path d="M325.43,134L325.43,138.167C325.43,142.333,325.43,150.667,325.43,158.117C325.43,165.567,325.43,172.133,325.43,175.417L325.43,178.7" id="L-Book-FTS-0" class=" edge-thickness-normal edge-pattern-solid flowchart-link LS-Book LE-FTS" style="fill:none;" marker-end="url(#my-svg_flowchart-pointEnd)"/><path d="M418.938,131.068L438.227,135.723C457.516,140.379,496.094,149.689,515.383,157.628C534.672,165.567,534.672,172.133,534.672,175.417L534.672,178.7" id="L-Book-Anchor-0" class=" edge-thickness-normal edge-pattern-solid flowchart-link LS-Book LE-Anchor" style="fill:none;" marker-end="url(#my-svg_flowchart-pointEnd)"/><path d="M97.734,235L97.734,239.167C97.734,243.333,97.734,251.667,125.565,260.906C153.395,270.145,209.055,280.289,236.885,285.362L264.716,290.434" id="L-Dense-Merge-0" class=" edge-thickness-normal edge-pattern-solid flowchart-link LS-Dense LE-Merge" style="fill:none;" marker-end="url(#my-svg_flowchart-pointEnd)"/><path d="M325.43,235L325.43,239.167C325.43,243.333,325.43,251.667,325.43,259.117C325.43,266.567,325.43,273.133,325.43,276.417L325.43,279.7" id="L-FTS-Merge-0" class=" edge-thickness-normal edge-pattern-solid flowchart-link LS-FTS LE-Merge" style="fill:none;" marker-end="url(#my-svg_flowchart-pointEnd)"/><path d="M534.672,235L534.672,239.167C534.672,243.333,534.672,251.667,509.915,260.744C485.157,269.82,435.643,279.641,410.886,284.551L386.128,289.461" id="L-Anchor-Merge-0" class=" edge-thickness-normal edge-pattern-solid flowchart-link LS-Anchor LE-Merge" style="fill:none;" marker-end="url(#my-svg_flowchart-pointEnd)"/><path d="M325.43,318L325.43,322.167C325.43,326.333,325.43,334.667,325.43,342.117C325.43,349.567,325.43,356.133,325.43,359.417L325.43,362.7" id="L-Merge-Parent-0" class=" edge-thickness-normal edge-pattern-solid flowchart-link LS-Merge LE-Parent" style="fill:none;" marker-end="url(#my-svg_flowchart-pointEnd)"/><path d="M325.43,419L325.43,423.167C325.43,427.333,325.43,435.667,325.43,443.117C325.43,450.567,325.43,457.133,325.43,460.417L325.43,463.7" id="L-Parent-Signal-0" class=" edge-thickness-normal edge-pattern-solid flowchart-link LS-Parent LE-Signal" style="fill:none;" marker-end="url(#my-svg_flowchart-pointEnd)"/><path d="M325.43,520L325.43,524.167C325.43,528.333,325.43,536.667,325.43,544.117C325.43,551.567,325.43,558.133,325.43,561.417L325.43,564.7" id="L-Signal-Rerank-0" class=" edge-thickness-normal edge-pattern-solid flowchart-link LS-Signal LE-Rerank" style="fill:none;" marker-end="url(#my-svg_flowchart-pointEnd)"/><path d="M325.43,621L325.43,625.167C325.43,629.333,325.43,637.667,325.43,645.117C325.43,652.567,325.43,659.133,325.43,662.417L325.43,665.7" id="L-Rerank-Context-0" class=" edge-thickness-normal edge-pattern-solid flowchart-link LS-Rerank LE-Context" style="fill:none;" marker-end="url(#my-svg_flowchart-pointEnd)"/><path d="M325.43,704L325.43,708.167C325.43,712.333,325.43,720.667,325.43,728.117C325.43,735.567,325.43,742.133,325.43,745.417L325.43,748.7" id="L-Context-LLM-0" class=" edge-thickness-normal edge-pattern-solid flowchart-link LS-Context LE-LLM" style="fill:none;" marker-end="url(#my-svg_flowchart-pointEnd)"/><path d="M325.43,787L325.43,791.167C325.43,795.333,325.43,803.667,325.43,811.117C325.43,818.567,325.43,825.133,325.43,828.417L325.43,831.7" id="L-LLM-Cite-0" class=" edge-thickness-normal edge-pattern-solid flowchart-link LS-LLM LE-Cite" style="fill:none;" marker-end="url(#my-svg_flowchart-pointEnd)"/></g><g class="edgeLabels"><g class="edgeLabel"><g class="label" transform="translate(0, 0)"><foreignObject width="0" height="0"><div xmlns="http://www.w3.org/1999/xhtml" style="display: inline-block; white-space: nowrap;"><span class="edgeLabel"></span></div></foreignObject></g></g><g class="edgeLabel"><g class="label" transform="translate(0, 0)"><foreignObject width="0" height="0"><div xmlns="http://www.w3.org/1999/xhtml" style="display: inline-block; white-space: nowrap;"><span class="edgeLabel"></span></div></foreignObject></g></g><g class="edgeLabel"><g class="label" transform="translate(0, 0)"><foreignObject width="0" height="0"><div xmlns="http://www.w3.org/1999/xhtml" style="display: inline-block; white-space: nowrap;"><span class="edgeLabel"></span></div></foreignObject></g></g><g class="edgeLabel"><g class="label" transform="translate(0, 0)"><foreignObject width="0" height="0"><div xmlns="http://www.w3.org/1999/xhtml" style="display: inline-block; white-space: nowrap;"><span class="edgeLabel"></span></div></foreignObject></g></g><g class="edgeLabel"><g class="label" transform="translate(0, 0)"><foreignObject width="0" height="0"><div xmlns="http://www.w3.org/1999/xhtml" style="display: inline-block; white-space: nowrap;"><span class="edgeLabel"></span></div></foreignObject></g></g><g class="edgeLabel"><g class="label" transform="translate(0, 0)"><foreignObject width="0" height="0"><div xmlns="http://www.w3.org/1999/xhtml" style="display: inline-block; white-space: nowrap;"><span class="edgeLabel"></span></div></foreignObject></g></g><g class="edgeLabel"><g class="label" transform="translate(0, 0)"><foreignObject width="0" height="0"><div xmlns="http://www.w3.org/1999/xhtml" style="display: inline-block; white-space: nowrap;"><span class="edgeLabel"></span></div></foreignObject></g></g><g class="edgeLabel"><g class="label" transform="translate(0, 0)"><foreignObject width="0" height="0"><div xmlns="http://www.w3.org/1999/xhtml" style="display: inline-block; white-space: nowrap;"><span class="edgeLabel"></span></div></foreignObject></g></g><g class="edgeLabel"><g class="label" transform="translate(0, 0)"><foreignObject width="0" height="0"><div xmlns="http://www.w3.org/1999/xhtml" style="display: inline-block; white-space: nowrap;"><span class="edgeLabel"></span></div></foreignObject></g></g><g class="edgeLabel"><g class="label" transform="translate(0, 0)"><foreignObject width="0" height="0"><div xmlns="http://www.w3.org/1999/xhtml" style="display: inline-block; white-space: nowrap;"><span class="edgeLabel"></span></div></foreignObject></g></g><g class="edgeLabel"><g class="label" transform="translate(0, 0)"><foreignObject width="0" height="0"><div xmlns="http://www.w3.org/1999/xhtml" style="display: inline-block; white-space: nowrap;"><span class="edgeLabel"></span></div></foreignObject></g></g><g class="edgeLabel"><g class="label" transform="translate(0, 0)"><foreignObject width="0" height="0"><div xmlns="http://www.w3.org/1999/xhtml" style="display: inline-block; white-space: nowrap;"><span class="edgeLabel"></span></div></foreignObject></g></g><g class="edgeLabel"><g class="label" transform="translate(0, 0)"><foreignObject width="0" height="0"><div xmlns="http://www.w3.org/1999/xhtml" style="display: inline-block; white-space: nowrap;"><span class="edgeLabel"></span></div></foreignObject></g></g></g><g class="nodes"><g class="node default default flowchart-label" id="flowchart-Q-0" data-node="true" data-id="Q" transform="translate(325.4296875, 16.5)"><rect class="basic label-container" style="" rx="0" ry="0" x="-31.5" y="-16.5" width="63" height="33"/><g class="label" style="" transform="translate(-24, -9)"><rect/><foreignObject width="48" height="18"><div xmlns="http://www.w3.org/1999/xhtml" style="display: inline-block; white-space: nowrap;"><span class="nodeLabel">用户问题</span></div></foreignObject></g></g><g class="node default default flowchart-label" id="flowchart-Book-1" data-node="true" data-id="Book" transform="translate(325.4296875, 108.5)"><rect class="basic label-container" style="" rx="0" ry="0" x="-93.5078125" y="-25.5" width="187.015625" height="51"/><g class="label" style="" transform="translate(-86.0078125, -18)"><rect/><foreignObject width="172.015625" height="36"><div xmlns="http://www.w3.org/1999/xhtml" style="display: inline-block; white-space: nowrap;"><span class="nodeLabel">书籍识别<br />关键词优先，必要时 LLM 判断</span></div></foreignObject></g></g><g class="node default default flowchart-label" id="flowchart-Dense-3" data-node="true" data-id="Dense" transform="translate(97.734375, 209.5)"><rect class="basic label-container" style="" rx="0" ry="0" x="-97.734375" y="-25.5" width="195.46875" height="51"/><g class="label" style="" transform="translate(-90.234375, -18)"><rect/><foreignObject width="180.46875" height="36"><div xmlns="http://www.w3.org/1999/xhtml" style="display: inline-block; white-space: nowrap;"><span class="nodeLabel">多查询向量召回<br />原问题 + 改写问题 + 关键词组合</span></div></foreignObject></g></g><g class="node default default flowchart-label" id="flowchart-FTS-5" data-node="true" data-id="FTS" transform="translate(325.4296875, 209.5)"><rect class="basic label-container" style="" rx="0" ry="0" x="-79.9609375" y="-25.5" width="159.921875" height="51"/><g class="label" style="" transform="translate(-72.4609375, -18)"><rect/><foreignObject width="144.921875" height="36"><div xmlns="http://www.w3.org/1999/xhtml" style="display: inline-block; white-space: nowrap;"><span class="nodeLabel">SQLite FTS5 旁路召回<br />人物 / 物件 / 章节精确词</span></div></foreignObject></g></g><g class="node default default flowchart-label" id="flowchart-Anchor-7" data-node="true" data-id="Anchor" transform="translate(534.671875, 209.5)"><rect class="basic label-container" style="" rx="0" ry="0" x="-79.28125" y="-25.5" width="158.5625" height="51"/><g class="label" style="" transform="translate(-71.78125, -18)"><rect/><foreignObject width="143.5625" height="36"><div xmlns="http://www.w3.org/1999/xhtml" style="display: inline-block; white-space: nowrap;"><span class="nodeLabel">章节与关键词锚点补召回<br />如林黛玉进贾府 -&gt; 第三回</span></div></foreignObject></g></g><g class="node default default flowchart-label" id="flowchart-Merge-9" data-node="true" data-id="Merge" transform="translate(325.4296875, 301.5)"><rect class="basic label-container" style="" rx="0" ry="0" x="-55.5" y="-16.5" width="111" height="33"/><g class="label" style="" transform="translate(-48, -9)"><rect/><foreignObject width="96" height="18"><div xmlns="http://www.w3.org/1999/xhtml" style="display: inline-block; white-space: nowrap;"><span class="nodeLabel">召回结果合并去重</span></div></foreignObject></g></g><g class="node default default flowchart-label" id="flowchart-Parent-15" data-node="true" data-id="Parent" transform="translate(325.4296875, 393.5)"><rect class="basic label-container" style="" rx="0" ry="0" x="-87.7578125" y="-25.5" width="175.515625" height="51"/><g class="label" style="" transform="translate(-80.2578125, -18)"><rect/><foreignObject width="160.515625" height="36"><div xmlns="http://www.w3.org/1999/xhtml" style="display: inline-block; white-space: nowrap;"><span class="nodeLabel">父子上下文扩展<br />命中 chunk + 相邻 chunk</span></div></foreignObject></g></g><g class="node default default flowchart-label" id="flowchart-Signal-17" data-node="true" data-id="Signal" transform="translate(325.4296875, 494.5)"><rect class="basic label-container" style="" rx="0" ry="0" x="-223.171875" y="-25.5" width="446.34375" height="51"/><g class="label" style="" transform="translate(-215.671875, -18)"><rect/><foreignObject width="431.34375" height="36"><div xmlns="http://www.w3.org/1999/xhtml" style="display: inline-block; white-space: nowrap;"><span class="nodeLabel">召回信号预排序<br />lexical / fts / chapter / rewrite_dense / dense / parent_context</span></div></foreignObject></g></g><g class="node default default flowchart-label" id="flowchart-Rerank-19" data-node="true" data-id="Rerank" transform="translate(325.4296875, 595.5)"><rect class="basic label-container" style="" rx="0" ry="0" x="-78.1953125" y="-25.5" width="156.390625" height="51"/><g class="label" style="" transform="translate(-70.6953125, -18)"><rect/><foreignObject width="141.390625" height="36"><div xmlns="http://www.w3.org/1999/xhtml" style="display: inline-block; white-space: nowrap;"><span class="nodeLabel">bge-reranker-v2-m3<br />CrossEncoder 精排</span></div></foreignObject></g></g><g class="node default default flowchart-label" id="flowchart-Context-21" data-node="true" data-id="Context" transform="translate(325.4296875, 687.5)"><rect class="basic label-container" style="" rx="0" ry="0" x="-49.5" y="-16.5" width="99" height="33"/><g class="label" style="" transform="translate(-42, -9)"><rect/><foreignObject width="84" height="18"><div xmlns="http://www.w3.org/1999/xhtml" style="display: inline-block; white-space: nowrap;"><span class="nodeLabel">构造原文上下文</span></div></foreignObject></g></g><g class="node default default flowchart-label" id="flowchart-LLM-23" data-node="true" data-id="LLM" transform="translate(325.4296875, 770.5)"><rect class="basic label-container" style="" rx="0" ry="0" x="-49.2890625" y="-16.5" width="98.578125" height="33"/><g class="label" style="" transform="translate(-41.7890625, -9)"><rect/><foreignObject width="83.578125" height="18"><div xmlns="http://www.w3.org/1999/xhtml" style="display: inline-block; white-space: nowrap;"><span class="nodeLabel">LLM 流式生成</span></div></foreignObject></g></g><g class="node default default flowchart-label" id="flowchart-Cite-25" data-node="true" data-id="Cite" transform="translate(325.4296875, 853.5)"><rect class="basic label-container" style="" rx="0" ry="0" x="-52.6171875" y="-16.5" width="105.234375" height="33"/><g class="label" style="" transform="translate(-45.1171875, -9)"><rect/><foreignObject width="90.234375" height="18"><div xmlns="http://www.w3.org/1999/xhtml" style="display: inline-block; white-space: nowrap;"><span class="nodeLabel">答案 + 引用来源</span></div></foreignObject></g></g></g></g></g></svg>