<svg id="my-svg" width="100%" xmlns="http://www.w3.org/2000/svg" xmlns:xlink="http://www.w3.org/1999/xlink" style="max-width: 3165.8px; background-color: transparent;" viewBox="-40 -40 3165.796875 522" role="graphics-document document" aria-roledescription="flowchart-v2"><style>#my-svg{font-family:Inter,Arial,sans-serif;font-size:14px;fill:#eaf4f3;}#my-svg .error-icon{fill:#14262c;}#my-svg .error-text{fill:#ebd9d3;stroke:#ebd9d3;}#my-svg .edge-thickness-normal{stroke-width:2px;}#my-svg .edge-thickness-thick{stroke-width:3.5px;}#my-svg .edge-pattern-solid{stroke-dasharray:0;}#my-svg .edge-pattern-dashed{stroke-dasharray:3;}#my-svg .edge-pattern-dotted{stroke-dasharray:2;}#my-svg .marker{fill:#8fa7a5;stroke:#8fa7a5;}#my-svg .marker.cross{stroke:#8fa7a5;}#my-svg svg{font-family:Inter,Arial,sans-serif;font-size:14px;}#my-svg .label{font-family:Inter,Arial,sans-serif;color:#eaf4f3;}#my-svg .cluster-label text{fill:#ebd9d3;}#my-svg .cluster-label span,#my-svg p{color:#ebd9d3;}#my-svg .label text,#my-svg span,#my-svg p{fill:#eaf4f3;color:#eaf4f3;}#my-svg .node rect,#my-svg .node circle,#my-svg .node ellipse,#my-svg .node polygon,#my-svg .node path{fill:#17272d;stroke:#82d3d7;stroke-width:1px;}#my-svg .flowchart-label text{text-anchor:middle;}#my-svg .node .katex path{fill:#000;stroke:#000;stroke-width:1px;}#my-svg .node .label{text-align:center;}#my-svg .node.clickable{cursor:pointer;}#my-svg .arrowheadPath{fill:rgba(255, 255, 255, 0);}#my-svg .edgePath .path{stroke:#8fa7a5;stroke-width:2.0px;}#my-svg .flowchart-link{stroke:#8fa7a5;fill:none;}#my-svg .edgeLabel{background-color:#17272d;text-align:center;}#my-svg .edgeLabel rect{opacity:0.5;background-color:#17272d;fill:#17272d;}#my-svg .labelBkg{background-color:rgba(23, 39, 45, 0.5);}#my-svg .cluster rect{fill:#14262c;stroke:#5b9095;stroke-width:1px;}#my-svg .cluster text{fill:#ebd9d3;}#my-svg .cluster span,#my-svg p{color:#ebd9d3;}#my-svg div.mermaidTooltip{position:absolute;text-align:center;max-width:200px;padding:2px;font-family:Inter,Arial,sans-serif;font-size:12px;background:#14262c;border:1px solid hsl(195, 0%, 2.5490196078%);border-radius:2px;pointer-events:none;z-index:100;}#my-svg .flowchartTitleText{text-anchor:middle;font-size:18px;fill:#eaf4f3;}#my-svg :root{--mermaid-font-family:"trebuchet ms",verdana,arial,sans-serif;}#my-svg foreignObject{overflow:visible;}#my-svg .label,#my-svg .nodeLabel,#my-svg .edgeLabel{overflow:visible;}#my-svg .nodeLabel,#my-svg .edgeLabel{line-height:1.28;}</style><g><marker id="my-svg_flowchart-pointEnd" class="marker flowchart" viewBox="0 0 10 10" refX="6" refY="5" markerUnits="userSpaceOnUse" markerWidth="12" markerHeight="12" orient="auto"><path d="M 0 0 L 10 5 L 0 10 z" class="arrowMarkerPath" style="stroke-width: 1; stroke-dasharray: 1, 0;"/></marker><marker id="my-svg_flowchart-pointStart" class="marker flowchart" viewBox="0 0 10 10" refX="4.5" refY="5" markerUnits="userSpaceOnUse" markerWidth="12" markerHeight="12" orient="auto"><path d="M 0 5 L 10 10 L 10 0 z" class="arrowMarkerPath" style="stroke-width: 1; stroke-dasharray: 1, 0;"/></marker><marker id="my-svg_flowchart-circleEnd" class="marker flowchart" viewBox="0 0 10 10" refX="11" refY="5" markerUnits="userSpaceOnUse" markerWidth="11" markerHeight="11" orient="auto"><circle cx="5" cy="5" r="5" class="arrowMarkerPath" style="stroke-width: 1; stroke-dasharray: 1, 0;"/></marker><marker id="my-svg_flowchart-circleStart" class="marker flowchart" viewBox="0 0 10 10" refX="-1" refY="5" markerUnits="userSpaceOnUse" markerWidth="11" markerHeight="11" orient="auto"><circle cx="5" cy="5" r="5" class="arrowMarkerPath" style="stroke-width: 1; stroke-dasharray: 1, 0;"/></marker><marker id="my-svg_flowchart-crossEnd" class="marker cross flowchart" viewBox="0 0 11 11" refX="12" refY="5.2" markerUnits="userSpaceOnUse" markerWidth="11" markerHeight="11" orient="auto"><path d="M 1,1 l 9,9 M 10,1 l -9,9" class="arrowMarkerPath" style="stroke-width: 2; stroke-dasharray: 1, 0;"/></marker><marker id="my-svg_flowchart-crossStart" class="marker cross flowchart" viewBox="0 0 11 11" refX="-1" refY="5.2" markerUnits="userSpaceOnUse" markerWidth="11" markerHeight="11" orient="auto"><path d="M 1,1 l 9,9 M 10,1 l -9,9" class="arrowMarkerPath" style="stroke-width: 2; stroke-dasharray: 1, 0;"/></marker><g class="root"><g class="clusters"/><g class="edgePaths"><path d="M1894.617,34L1894.617,39.333C1894.617,44.667,1894.617,55.333,1894.617,65.117C1894.617,74.9,1894.617,83.8,1894.617,88.25L1894.617,92.7" id="L-User-Unified-0" class=" edge-thickness-normal edge-pattern-solid flowchart-link LS-User LE-Unified" style="fill:none;" marker-end="url(#my-svg_flowchart-pointEnd)"/><path d="M1894.617,132L1894.617,137.333C1894.617,142.667,1894.617,153.333,1894.617,163.117C1894.617,172.9,1894.617,181.8,1894.617,186.25L1894.617,190.7" id="L-Unified-Supervisor-0" class=" edge-thickness-normal edge-pattern-solid flowchart-link LS-Unified LE-Supervisor" style="fill:none;" marker-end="url(#my-svg_flowchart-pointEnd)"/><path d="M1833.859,215.281L1626.413,223.067C1418.966,230.854,1004.073,246.427,796.626,258.663C589.18,270.9,589.18,279.8,589.18,284.25L589.18,288.7" id="L-Supervisor-Daiyu-0" class=" edge-thickness-normal edge-pattern-solid flowchart-link LS-Supervisor LE-Daiyu" style="fill:none;" marker-end="url(#my-svg_flowchart-pointEnd)"/><path d="M544.188,315.172L463.616,322.643C383.044,330.115,221.901,345.057,141.329,358.312C60.758,371.567,60.758,383.133,60.758,388.917L60.758,394.7" id="L-Daiyu-DY1-0" class=" edge-thickness-normal edge-pattern-solid flowchart-link LS-Daiyu LE-DY1" style="fill:none;" marker-end="url(#my-svg_flowchart-pointEnd)"/><path d="M544.188,317.208L492.497,324.34C440.807,331.472,337.427,345.736,285.737,358.651C234.047,371.567,234.047,383.133,234.047,388.917L234.047,394.7" id="L-Daiyu-DY2-0" class=" edge-thickness-normal edge-pattern-solid flowchart-link LS-Daiyu LE-DY2" style="fill:none;" marker-end="url(#my-svg_flowchart-pointEnd)"/><path d="M544.188,323.526L522.352,329.605C500.516,335.684,456.844,347.842,435.008,359.704C413.172,371.567,413.172,383.133,413.172,388.917L413.172,394.7" id="L-Daiyu-DY3-0" class=" edge-thickness-normal edge-pattern-solid flowchart-link LS-Daiyu LE-DY3" style="fill:none;" marker-end="url(#my-svg_flowchart-pointEnd)"/><path d="M589.18,328L589.18,333.333C589.18,338.667,589.18,349.333,589.18,360.45C589.18,371.567,589.18,383.133,589.18,388.917L589.18,394.7" id="L-Daiyu-DY4-0" class=" edge-thickness-normal edge-pattern-solid flowchart-link LS-Daiyu LE-DY4" style="fill:none;" marker-end="url(#my-svg_flowchart-pointEnd)"/><path d="M634.172,323.926L655.1,329.938C676.029,335.95,717.885,347.975,738.814,359.771C759.742,371.567,759.742,383.133,759.742,388.917L759.742,394.7" id="L-Daiyu-DY5-0" class=" edge-thickness-normal edge-pattern-solid flowchart-link LS-Daiyu LE-DY5" style="fill:none;" marker-end="url(#my-svg_flowchart-pointEnd)"/><path d="M634.172,317.361L684.436,324.468C734.701,331.574,835.229,345.787,885.493,358.677C935.758,371.567,935.758,383.133,935.758,388.917L935.758,394.7" id="L-Daiyu-DY6-0" class=" edge-thickness-normal edge-pattern-solid flowchart-link LS-Daiyu LE-DY6" style="fill:none;" marker-end="url(#my-svg_flowchart-pointEnd)"/><path d="M634.172,315.44L709.426,322.867C784.68,330.293,935.188,345.147,1010.441,358.357C1085.695,371.567,1085.695,383.133,1085.695,388.917L1085.695,394.7" id="L-Daiyu-DY7-0" class=" edge-thickness-normal edge-pattern-solid flowchart-link LS-Daiyu LE-DY7" style="fill:none;" marker-end="url(#my-svg_flowchart-pointEnd)"/><path d="M1833.859,223.579L1797.081,229.982C1760.302,236.386,1686.745,249.193,1649.966,260.046C1613.188,270.9,1613.188,279.8,1613.188,284.25L1613.188,288.7" id="L-Supervisor-RAG-0" class=" edge-thickness-normal edge-pattern-solid flowchart-link LS-Supervisor LE-RAG" style="fill:none;" marker-end="url(#my-svg_flowchart-pointEnd)"/><path d="M1546.219,319.114L1489.977,325.928C1433.734,332.743,1321.25,346.371,1265.008,358.969C1208.766,371.567,1208.766,383.133,1208.766,388.917L1208.766,394.7" id="L-RAG-R1-0" class=" edge-thickness-normal edge-pattern-solid flowchart-link LS-RAG LE-R1" style="fill:none;" marker-end="url(#my-svg_flowchart-pointEnd)"/><path d="M1546.219,323.642L1514.117,329.701C1482.016,335.761,1417.813,347.881,1385.711,359.724C1353.609,371.567,1353.609,383.133,1353.609,388.917L1353.609,394.7" id="L-RAG-R2-0" class=" edge-thickness-normal edge-pattern-solid flowchart-link LS-RAG LE-R2" style="fill:none;" marker-end="url(#my-svg_flowchart-pointEnd)"/><path d="M1584.451,328L1575.436,333.333C1566.421,338.667,1548.39,349.333,1539.375,360.45C1530.359,371.567,1530.359,383.133,1530.359,388.917L1530.359,394.7" id="L-RAG-R3-0" class=" edge-thickness-normal edge-pattern-solid flowchart-link LS-RAG LE-R3" style="fill:none;" marker-end="url(#my-svg_flowchart-pointEnd)"/><path d="M1641.924,328L1650.939,333.333C1659.954,338.667,1677.985,349.333,1687,360.45C1696.016,371.567,1696.016,383.133,1696.016,388.917L1696.016,394.7" id="L-RAG-R4-0" class=" edge-thickness-normal edge-pattern-solid flowchart-link LS-RAG LE-R4" style="fill:none;" marker-end="url(#my-svg_flowchart-pointEnd)"/><path d="M1680.156,324.226L1710.345,330.189C1740.534,336.151,1800.911,348.075,1831.1,359.821C1861.289,371.567,1861.289,383.133,1861.289,388.917L1861.289,394.7" id="L-RAG-R5-0" class=" edge-thickness-normal edge-pattern-solid flowchart-link LS-RAG LE-R5" style="fill:none;" marker-end="url(#my-svg_flowchart-pointEnd)"/><path d="M1680.156,319.145L1736.141,325.954C1792.125,332.763,1904.094,346.382,1960.078,358.974C2016.063,371.567,2016.063,383.133,2016.063,388.917L2016.063,394.7" id="L-RAG-R6-0" class=" edge-thickness-normal edge-pattern-solid flowchart-link LS-RAG LE-R6" style="fill:none;" marker-end="url(#my-svg_flowchart-pointEnd)"/><path d="M1955.375,221.173L2005.958,227.978C2056.542,234.782,2157.708,248.391,2208.292,259.646C2258.875,270.9,2258.875,279.8,2258.875,284.25L2258.875,288.7" id="L-Supervisor-Interview-0" class=" edge-thickness-normal edge-pattern-solid flowchart-link LS-Supervisor LE-Interview" style="fill:none;" marker-end="url(#my-svg_flowchart-pointEnd)"/><path d="M2217.394,328L2204.381,333.333C2191.367,338.667,2165.34,349.333,2152.326,360.45C2139.313,371.567,2139.313,383.133,2139.313,388.917L2139.313,394.7" id="L-Interview-I1-0" class=" edge-thickness-normal edge-pattern-solid flowchart-link LS-Interview LE-I1" style="fill:none;" marker-end="url(#my-svg_flowchart-pointEnd)"/><path d="M2258.875,328L2258.875,333.333C2258.875,338.667,2258.875,349.333,2258.875,360.45C2258.875,371.567,2258.875,383.133,2258.875,388.917L2258.875,394.7" id="L-Interview-I2-0" class=" edge-thickness-normal edge-pattern-solid flowchart-link LS-Interview LE-I2" style="fill:none;" marker-end="url(#my-svg_flowchart-pointEnd)"/><path d="M2300.356,328L2313.369,333.333C2326.383,338.667,2352.41,349.333,2365.424,360.45C2378.438,371.567,2378.438,383.133,2378.438,388.917L2378.438,394.7" id="L-Interview-I3-0" class=" edge-thickness-normal edge-pattern-solid flowchart-link LS-Interview LE-I3" style="fill:none;" marker-end="url(#my-svg_flowchart-pointEnd)"/><path d="M1955.375,216.464L2088.47,224.054C2221.565,231.643,2487.755,246.821,2620.85,258.861C2753.945,270.9,2753.945,279.8,2753.945,284.25L2753.945,288.7" id="L-Supervisor-Assistant-0" class=" edge-thickness-normal edge-pattern-solid flowchart-link LS-Supervisor LE-Assistant" style="fill:none;" marker-end="url(#my-svg_flowchart-pointEnd)"/><path d="M2703.703,320.967L2670.909,327.472C2638.115,333.978,2572.526,346.989,2539.732,357.944C2506.938,368.9,2506.938,377.8,2506.938,382.25L2506.938,386.7" id="L-Assistant-A1-0" class=" edge-thickness-normal edge-pattern-solid flowchart-link LS-Assistant LE-A1" style="fill:none;" marker-end="url(#my-svg_flowchart-pointEnd)"/><path d="M2722.141,328L2712.163,333.333C2702.185,338.667,2682.229,349.333,2672.251,359.117C2662.273,368.9,2662.273,377.8,2662.273,382.25L2662.273,386.7" id="L-Assistant-A2-0" class=" edge-thickness-normal edge-pattern-solid flowchart-link LS-Assistant LE-A2" style="fill:none;" marker-end="url(#my-svg_flowchart-pointEnd)"/><path d="M2785.75,328L2795.728,333.333C2805.706,338.667,2825.661,349.333,2835.639,359.117C2845.617,368.9,2845.617,377.8,2845.617,382.25L2845.617,386.7" id="L-Assistant-A3-0" class=" edge-thickness-normal edge-pattern-solid flowchart-link LS-Assistant LE-A3" style="fill:none;" marker-end="url(#my-svg_flowchart-pointEnd)"/><path d="M2804.188,319.952L2841.65,326.626C2879.112,333.301,2954.036,346.651,2991.499,357.775C3028.961,368.9,3028.961,377.8,3028.961,382.25L3028.961,386.7" id="L-Assistant-A4-0" class=" edge-thickness-normal edge-pattern-solid flowchart-link LS-Assistant LE-A4" style="fill:none;" marker-end="url(#my-svg_flowchart-pointEnd)"/></g><g class="edgeLabels"><g class="edgeLabel"><g class="label" transform="translate(0, 0)"><foreignObject width="0" height="0"><div xmlns="http://www.w3.org/1999/xhtml" style="display: inline-block; white-space: nowrap;"><span class="edgeLabel"></span></div></foreignObject></g></g><g class="edgeLabel"><g class="label" transform="translate(0, 0)"><foreignObject width="0" height="0"><div xmlns="http://www.w3.org/1999/xhtml" style="display: inline-block; white-space: nowrap;"><span class="edgeLabel"></span></div></foreignObject></g></g><g class="edgeLabel"><g class="label" transform="translate(0, 0)"><foreignObject width="0" height="0"><div xmlns="http://www.w3.org/1999/xhtml" style="display: inline-block; white-space: nowrap;"><span class="edgeLabel"></span></div></foreignObject></g></g><g class="edgeLabel"><g class="label" transform="translate(0, 0)"><foreignObject width="0" height="0"><div xmlns="http://www.w3.org/1999/xhtml" style="display: inline-block; white-space: nowrap;"><span class="edgeLabel"></span></div></foreignObject></g></g><g class="edgeLabel"><g class="label" transform="translate(0, 0)"><foreignObject width="0" height="0"><div xmlns="http://www.w3.org/1999/xhtml" style="display: inline-block; white-space: nowrap;"><span class="edgeLabel"></span></div></foreignObject></g></g><g class="edgeLabel"><g class="label" transform="translate(0, 0)"><foreignObject width="0" height="0"><div xmlns="http://www.w3.org/1999/xhtml" style="display: inline-block; white-space: nowrap;"><span class="edgeLabel"></span></div></foreignObject></g></g><g class="edgeLabel"><g class="label" transform="translate(0, 0)"><foreignObject width="0" height="0"><div xmlns="http://www.w3.org/1999/xhtml" style="display: inline-block; white-space: nowrap;"><span class="edgeLabel"></span></div></foreignObject></g></g><g class="edgeLabel"><g class="label" transform="translate(0, 0)"><foreignObject width="0" height="0"><div xmlns="http://www.w3.org/1999/xhtml" style="display: inline-block; white-space: nowrap;"><span class="edgeLabel"></span></div></foreignObject></g></g><g class="edgeLabel"><g class="label" transform="translate(0, 0)"><foreignObject width="0" height="0"><div xmlns="http://www.w3.org/1999/xhtml" style="display: inline-block; white-space: nowrap;"><span class="edgeLabel"></span></div></foreignObject></g></g><g class="edgeLabel"><g class="label" transform="translate(0, 0)"><foreignObject width="0" height="0"><div xmlns="http://www.w3.org/1999/xhtml" style="display: inline-block; white-space: nowrap;"><span class="edgeLabel"></span></div></foreignObject></g></g><g class="edgeLabel"><g class="label" transform="translate(0, 0)"><foreignObject width="0" height="0"><div xmlns="http://www.w3.org/1999/xhtml" style="display: inline-block; white-space: nowrap;"><span class="edgeLabel"></span></div></foreignObject></g></g><g class="edgeLabel"><g class="label" transform="translate(0, 0)"><foreignObject width="0" height="0"><div xmlns="http://www.w3.org/1999/xhtml" style="display: inline-block; white-space: nowrap;"><span class="edgeLabel"></span></div></foreignObject></g></g><g class="edgeLabel"><g class="label" transform="translate(0, 0)"><foreignObject width="0" height="0"><div xmlns="http://www.w3.org/1999/xhtml" style="display: inline-block; white-space: nowrap;"><span class="edgeLabel"></span></div></foreignObject></g></g><g class="edgeLabel"><g class="label" transform="translate(0, 0)"><foreignObject width="0" height="0"><div xmlns="http://www.w3.org/1999/xhtml" style="display: inline-block; white-space: nowrap;"><span class="edgeLabel"></span></div></foreignObject></g></g><g class="edgeLabel"><g class="label" transform="translate(0, 0)"><foreignObject width="0" height="0"><div xmlns="http://www.w3.org/1999/xhtml" style="display: inline-block; white-space: nowrap;"><span class="edgeLabel"></span></div></foreignObject></g></g><g class="edgeLabel"><g class="label" transform="translate(0, 0)"><foreignObject width="0" height="0"><div xmlns="http://www.w3.org/1999/xhtml" style="display: inline-block; white-space: nowrap;"><span class="edgeLabel"></span></div></foreignObject></g></g><g class="edgeLabel"><g class="label" transform="translate(0, 0)"><foreignObject width="0" height="0"><div xmlns="http://www.w3.org/1999/xhtml" style="display: inline-block; white-space: nowrap;"><span class="edgeLabel"></span></div></foreignObject></g></g><g class="edgeLabel"><g class="label" transform="translate(0, 0)"><foreignObject width="0" height="0"><div xmlns="http://www.w3.org/1999/xhtml" style="display: inline-block; white-space: nowrap;"><span class="edgeLabel"></span></div></foreignObject></g></g><g class="edgeLabel"><g class="label" transform="translate(0, 0)"><foreignObject width="0" height="0"><div xmlns="http://www.w3.org/1999/xhtml" style="display: inline-block; white-space: nowrap;"><span class="edgeLabel"></span></div></foreignObject></g></g><g class="edgeLabel"><g class="label" transform="translate(0, 0)"><foreignObject width="0" height="0"><div xmlns="http://www.w3.org/1999/xhtml" style="display: inline-block; white-space: nowrap;"><span class="edgeLabel"></span></div></foreignObject></g></g><g class="edgeLabel"><g class="label" transform="translate(0, 0)"><foreignObject width="0" height="0"><div xmlns="http://www.w3.org/1999/xhtml" style="display: inline-block; white-space: nowrap;"><span class="edgeLabel"></span></div></foreignObject></g></g><g class="edgeLabel"><g class="label" transform="translate(0, 0)"><foreignObject width="0" height="0"><div xmlns="http://www.w3.org/1999/xhtml" style="display: inline-block; white-space: nowrap;"><span class="edgeLabel"></span></div></foreignObject></g></g><g class="edgeLabel"><g class="label" transform="translate(0, 0)"><foreignObject width="0" height="0"><div xmlns="http://www.w3.org/1999/xhtml" style="display: inline-block; white-space: nowrap;"><span class="edgeLabel"></span></div></foreignObject></g></g><g class="edgeLabel"><g class="label" transform="translate(0, 0)"><foreignObject width="0" height="0"><div xmlns="http://www.w3.org/1999/xhtml" style="display: inline-block; white-space: nowrap;"><span class="edgeLabel"></span></div></foreignObject></g></g><g class="edgeLabel"><g class="label" transform="translate(0, 0)"><foreignObject width="0" height="0"><div xmlns="http://www.w3.org/1999/xhtml" style="display: inline-block; white-space: nowrap;"><span class="edgeLabel"></span></div></foreignObject></g></g><g class="edgeLabel"><g class="label" transform="translate(0, 0)"><foreignObject width="0" height="0"><div xmlns="http://www.w3.org/1999/xhtml" style="display: inline-block; white-space: nowrap;"><span class="edgeLabel"></span></div></foreignObject></g></g></g><g class="nodes"><g class="node default default flowchart-label" id="flowchart-User-0" data-node="true" data-id="User" transform="translate(1894.6171875, 17)"><rect class="basic label-container" style="" rx="0" ry="0" x="-30" y="-17" width="60" height="34"/><g class="label" style="" transform="translate(-21, -8)"><rect/><foreignObject width="42" height="16"><div xmlns="http://www.w3.org/1999/xhtml" style="display: inline-block; white-space: nowrap;"><span class="nodeLabel">用户输入</span></div></foreignObject></g></g><g class="node default default flowchart-label" id="flowchart-Unified-1" data-node="true" data-id="Unified" transform="translate(1894.6171875, 115)"><rect class="basic label-container" style="" rx="0" ry="0" x="-40.5" y="-17" width="81" height="34"/><g class="label" style="" transform="translate(-31.5, -8)"><rect/><foreignObject width="63" height="16"><div xmlns="http://www.w3.org/1999/xhtml" style="display: inline-block; white-space: nowrap;"><span class="nodeLabel">统一聊天接口</span></div></foreignObject></g></g><g class="node default default flowchart-label" id="flowchart-Supervisor-3" data-node="true" data-id="Supervisor" transform="translate(1894.6171875, 213)"><rect class="basic label-container" style="" rx="0" ry="0" x="-60.7578125" y="-17" width="121.515625" height="34"/><g class="label" style="" transform="translate(-51.7578125, -8)"><rect/><foreignObject width="103.515625" height="16"><div xmlns="http://www.w3.org/1999/xhtml" style="display: inline-block; white-space: nowrap;"><span class="nodeLabel">SupervisorAgent</span></div></foreignObject></g></g><g class="node default default flowchart-label" id="flowchart-Daiyu-5" data-node="true" data-id="Daiyu" transform="translate(589.1796875, 311)"><rect class="basic label-container" style="" rx="0" ry="0" x="-44.9921875" y="-17" width="89.984375" height="34"/><g class="label" style="" transform="translate(-35.9921875, -8)"><rect/><foreignObject width="71.984375" height="16"><div xmlns="http://www.w3.org/1999/xhtml" style="display: inline-block; white-space: nowrap;"><span class="nodeLabel">林黛玉 Agent</span></div></foreignObject></g></g><g class="node default default flowchart-label" id="flowchart-DY1-7" data-node="true" data-id="DY1" transform="translate(60.7578125, 417)"><rect class="basic label-container" style="" rx="0" ry="0" x="-60.7578125" y="-17" width="121.515625" height="34"/><g class="label" style="" transform="translate(-51.7578125, -8)"><rect/><foreignObject width="103.515625" height="16"><div xmlns="http://www.w3.org/1999/xhtml" style="display: inline-block; white-space: nowrap;"><span class="nodeLabel">compose_poetry</span></div></foreignObject></g></g><g class="node default default flowchart-label" id="flowchart-DY2-9" data-node="true" data-id="DY2" transform="translate(234.046875, 417)"><rect class="basic label-container" style="" rx="0" ry="0" x="-54.53125" y="-17" width="109.0625" height="34"/><g class="label" style="" transform="translate(-45.53125, -8)"><rect/><foreignObject width="91.0625" height="16"><div xmlns="http://www.w3.org/1999/xhtml" style="display: inline-block; white-space: nowrap;"><span class="nodeLabel">match_couplet</span></div></foreignObject></g></g><g class="node default default flowchart-label" id="flowchart-DY3-11" data-node="true" data-id="DY3" transform="translate(413.171875, 417)"><rect class="basic label-container" style="" rx="0" ry="0" x="-66.59375" y="-17" width="133.1875" height="34"/><g class="label" style="" transform="translate(-57.59375, -8)"><rect/><foreignObject width="115.1875" height="16"><div xmlns="http://www.w3.org/1999/xhtml" style="display: inline-block; white-space: nowrap;"><span class="nodeLabel">play_poetry_game</span></div></foreignObject></g></g><g class="node default default flowchart-label" id="flowchart-DY4-13" data-node="true" data-id="DY4" transform="translate(589.1796875, 417)"><rect class="basic label-container" style="" rx="0" ry="0" x="-51.4140625" y="-17" width="102.828125" height="34"/><g class="label" style="" transform="translate(-42.4140625, -8)"><rect/><foreignObject width="84.828125" height="16"><div xmlns="http://www.w3.org/1999/xhtml" style="display: inline-block; white-space: nowrap;"><span class="nodeLabel">review_essay</span></div></foreignObject></g></g><g class="node default default flowchart-label" id="flowchart-DY5-15" data-node="true" data-id="DY5" transform="translate(759.7421875, 417)"><rect class="basic label-container" style="" rx="0" ry="0" x="-61.1484375" y="-17" width="122.296875" height="34"/><g class="label" style="" transform="translate(-52.1484375, -8)"><rect/><foreignObject width="104.296875" height="16"><div xmlns="http://www.w3.org/1999/xhtml" style="display: inline-block; white-space: nowrap;"><span class="nodeLabel">emotion_support</span></div></foreignObject></g></g><g class="node default default flowchart-label" id="flowchart-DY6-17" data-node="true" data-id="DY6" transform="translate(935.7578125, 417)"><rect class="basic label-container" style="" rx="0" ry="0" x="-56.8671875" y="-17" width="113.734375" height="34"/><g class="label" style="" transform="translate(-47.8671875, -8)"><rect/><foreignObject width="95.734375" height="16"><div xmlns="http://www.w3.org/1999/xhtml" style="display: inline-block; white-space: nowrap;"><span class="nodeLabel">detect_emotion</span></div></foreignObject></g></g><g class="node default default flowchart-label" id="flowchart-DY7-19" data-node="true" data-id="DY7" transform="translate(1085.6953125, 417)"><rect class="basic label-container" style="" rx="0" ry="0" x="-35.0703125" y="-17" width="70.140625" height="34"/><g class="label" style="" transform="translate(-26.0703125, -8)"><rect/><foreignObject width="52.140625" height="16"><div xmlns="http://www.w3.org/1999/xhtml" style="display: inline-block; white-space: nowrap;"><span class="nodeLabel">tell_time</span></div></foreignObject></g></g><g class="node default default flowchart-label" id="flowchart-RAG-21" data-node="true" data-id="RAG" transform="translate(1613.1875, 311)"><rect class="basic label-container" style="" rx="0" ry="0" x="-66.96875" y="-17" width="133.9375" height="34"/><g class="label" style="" transform="translate(-57.96875, -8)"><rect/><foreignObject width="115.9375" height="16"><div xmlns="http://www.w3.org/1999/xhtml" style="display: inline-block; white-space: nowrap;"><span class="nodeLabel">四大名著 RAG Agent</span></div></foreignObject></g></g><g class="node default default flowchart-label" id="flowchart-R1-23" data-node="true" data-id="R1" transform="translate(1208.765625, 417)"><rect class="basic label-container" style="" rx="0" ry="0" x="-30" y="-17" width="60" height="34"/><g class="label" style="" transform="translate(-21, -8)"><rect/><foreignObject width="42" height="16"><div xmlns="http://www.w3.org/1999/xhtml" style="display: inline-block; white-space: nowrap;"><span class="nodeLabel">书籍识别</span></div></foreignObject></g></g><g class="node default default flowchart-label" id="flowchart-R2-25" data-node="true" data-id="R2" transform="translate(1353.609375, 417)"><rect class="basic label-container" style="" rx="0" ry="0" x="-56.84375" y="-17" width="113.6875" height="34"/><g class="label" style="" transform="translate(-47.84375, -8)"><rect/><foreignObject width="95.6875" height="16"><div xmlns="http://www.w3.org/1999/xhtml" style="display: inline-block; white-space: nowrap;"><span class="nodeLabel">Chroma 向量召回</span></div></foreignObject></g></g><g class="node default default flowchart-label" id="flowchart-R3-27" data-node="true" data-id="R3" transform="translate(1530.359375, 417)"><rect class="basic label-container" style="" rx="0" ry="0" x="-61.90625" y="-17" width="123.8125" height="34"/><g class="label" style="" transform="translate(-52.90625, -8)"><rect/><foreignObject width="105.8125" height="16"><div xmlns="http://www.w3.org/1999/xhtml" style="display: inline-block; white-space: nowrap;"><span class="nodeLabel">SQLite FTS5 召回</span></div></foreignObject></g></g><g class="node default default flowchart-label" id="flowchart-R4-29" data-node="true" data-id="R4" transform="translate(1696.015625, 417)"><rect class="basic label-container" style="" rx="0" ry="0" x="-45.75" y="-17" width="91.5" height="34"/><g class="label" style="" transform="translate(-36.75, -8)"><rect/><foreignObject width="73.5" height="16"><div xmlns="http://www.w3.org/1999/xhtml" style="display: inline-block; white-space: nowrap;"><span class="nodeLabel">章节锚点补召回</span></div></foreignObject></g></g><g class="node default default flowchart-label" id="flowchart-R5-31" data-node="true" data-id="R5" transform="translate(1861.2890625, 417)"><rect class="basic label-container" style="" rx="0" ry="0" x="-61.5234375" y="-17" width="123.046875" height="34"/><g class="label" style="" transform="translate(-52.5234375, -8)"><rect/><foreignObject width="105.046875" height="16"><div xmlns="http://www.w3.org/1999/xhtml" style="display: inline-block; white-space: nowrap;"><span class="nodeLabel">bge-reranker 精排</span></div></foreignObject></g></g><g class="node default default flowchart-label" id="flowchart-R6-33" data-node="true" data-id="R6" transform="translate(2016.0625, 417)"><rect class="basic label-container" style="" rx="0" ry="0" x="-35.25" y="-17" width="70.5" height="34"/><g class="label" style="" transform="translate(-26.25, -8)"><rect/><foreignObject width="52.5" height="16"><div xmlns="http://www.w3.org/1999/xhtml" style="display: inline-block; white-space: nowrap;"><span class="nodeLabel">带引用生成</span></div></foreignObject></g></g><g class="node default default flowchart-label" id="flowchart-Interview-35" data-node="true" data-id="Interview" transform="translate(2258.875, 311)"><rect class="basic label-container" style="" rx="0" ry="0" x="-50.2421875" y="-17" width="100.484375" height="34"/><g class="label" style="" transform="translate(-41.2421875, -8)"><rect/><foreignObject width="82.484375" height="16"><div xmlns="http://www.w3.org/1999/xhtml" style="display: inline-block; white-space: nowrap;"><span class="nodeLabel">模拟面试 Agent</span></div></foreignObject></g></g><g class="node default default flowchart-label" id="flowchart-I1-37" data-node="true" data-id="I1" transform="translate(2139.3125, 417)"><rect class="basic label-container" style="" rx="0" ry="0" x="-30" y="-17" width="60" height="34"/><g class="label" style="" transform="translate(-21, -8)"><rect/><foreignObject width="42" height="16"><div xmlns="http://www.w3.org/1999/xhtml" style="display: inline-block; white-space: nowrap;"><span class="nodeLabel">岗位模拟</span></div></foreignObject></g></g><g class="node default default flowchart-label" id="flowchart-I2-39" data-node="true" data-id="I2" transform="translate(2258.875, 417)"><rect class="basic label-container" style="" rx="0" ry="0" x="-31.5625" y="-17" width="63.125" height="34"/><g class="label" style="" transform="translate(-22.5625, -8)"><rect/><foreignObject width="45.125" height="16"><div xmlns="http://www.w3.org/1999/xhtml" style="display: inline-block; white-space: nowrap;"><span class="nodeLabel">HR 问答</span></div></foreignObject></g></g><g class="node default default flowchart-label" id="flowchart-I3-41" data-node="true" data-id="I3" transform="translate(2378.4375, 417)"><rect class="basic label-container" style="" rx="0" ry="0" x="-30" y="-17" width="60" height="34"/><g class="label" style="" transform="translate(-21, -8)"><rect/><foreignObject width="42" height="16"><div xmlns="http://www.w3.org/1999/xhtml" style="display: inline-block; white-space: nowrap;"><span class="nodeLabel">项目追问</span></div></foreignObject></g></g><g class="node default default flowchart-label" id="flowchart-Assistant-43" data-node="true" data-id="Assistant" transform="translate(2753.9453125, 311)"><rect class="basic label-container" style="" rx="0" ry="0" x="-50.2421875" y="-17" width="100.484375" height="34"/><g class="label" style="" transform="translate(-41.2421875, -8)"><rect/><foreignObject width="82.484375" height="16"><div xmlns="http://www.w3.org/1999/xhtml" style="display: inline-block; white-space: nowrap;"><span class="nodeLabel">教务助手 Agent</span></div></foreignObject></g></g><g class="node default default flowchart-label" id="flowchart-A1-45" data-node="true" data-id="A1" transform="translate(2506.9375, 417)"><rect class="basic label-container" style="" rx="0" ry="0" x="-40.5" y="-25" width="81" height="50"/><g class="label" style="" transform="translate(-31.5, -16)"><rect/><foreignObject width="63" height="32"><div xmlns="http://www.w3.org/1999/xhtml" style="display: inline-block; white-space: nowrap;"><span class="nodeLabel">text2sql<br />自然语言问数</span></div></foreignObject></g></g><g class="node default default flowchart-label" id="flowchart-A2-47" data-node="true" data-id="A2" transform="translate(2662.2734375, 417)"><rect class="basic label-container" style="" rx="0" ry="0" x="-56.8359375" y="-25" width="113.671875" height="50"/><g class="label" style="" transform="translate(-47.8359375, -16)"><rect/><foreignObject width="95.671875" height="32"><div xmlns="http://www.w3.org/1999/xhtml" style="display: inline-block; white-space: nowrap;"><span class="nodeLabel">function_call<br />学生成绩 / 班级统计</span></div></foreignObject></g></g><g class="node default default flowchart-label" id="flowchart-A3-49" data-node="true" data-id="A3" transform="translate(2845.6171875, 417)"><rect class="basic label-container" style="" rx="0" ry="0" x="-68.5078125" y="-25" width="137.015625" height="50"/><g class="label" style="" transform="translate(-59.5078125, -16)"><rect/><foreignObject width="119.015625" height="32"><div xmlns="http://www.w3.org/1999/xhtml" style="display: inline-block; white-space: nowrap;"><span class="nodeLabel">template<br />通知 / 评语 / 报告 / 班会</span></div></foreignObject></g></g><g class="node default default flowchart-label" id="flowchart-A4-51" data-node="true" data-id="A4" transform="translate(3028.9609375, 417)"><rect class="basic label-container" style="" rx="0" ry="0" x="-56.8359375" y="-25" width="113.671875" height="50"/><g class="label" style="" transform="translate(-47.8359375, -16)"><rect/><foreignObject width="95.671875" height="32"><div xmlns="http://www.w3.org/1999/xhtml" style="display: inline-block; white-space: nowrap;"><span class="nodeLabel">general<br />学习建议 / 方法解释</span></div></foreignObject></g></g></g></g></g></svg>