<svg id="my-svg" width="100%" xmlns="http://www.w3.org/2000/svg" xmlns:xlink="http://www.w3.org/1999/xlink" style="max-width: 1028.55px; background-color: transparent;" viewBox="-8 -8 1028.546875 464" role="graphics-document document" aria-roledescription="flowchart-v2"><style>#my-svg{font-family:Inter,Arial,sans-serif;font-size:16px;fill:#0f2732;}#my-svg .error-icon{fill:#f8f0df;}#my-svg .error-text{fill:#070f20;stroke:#070f20;}#my-svg .edge-thickness-normal{stroke-width:2px;}#my-svg .edge-thickness-thick{stroke-width:3.5px;}#my-svg .edge-pattern-solid{stroke-dasharray:0;}#my-svg .edge-pattern-dashed{stroke-dasharray:3;}#my-svg .edge-pattern-dotted{stroke-dasharray:2;}#my-svg .marker{fill:#8a7b6b;stroke:#8a7b6b;}#my-svg .marker.cross{stroke:#8a7b6b;}#my-svg svg{font-family:Inter,Arial,sans-serif;font-size:16px;}#my-svg .label{font-family:Inter,Arial,sans-serif;color:#0f2732;}#my-svg .cluster-label text{fill:#070f20;}#my-svg .cluster-label span,#my-svg p{color:#070f20;}#my-svg .label text,#my-svg span,#my-svg p{fill:#0f2732;color:#0f2732;}#my-svg .node rect,#my-svg .node circle,#my-svg .node ellipse,#my-svg .node polygon,#my-svg .node path{fill:#fffaf2;stroke:#0a7080;stroke-width:1px;}#my-svg .flowchart-label text{text-anchor:middle;}#my-svg .node .katex path{fill:#000;stroke:#000;stroke-width:1px;}#my-svg .node .label{text-align:center;}#my-svg .node.clickable{cursor:pointer;}#my-svg .arrowheadPath{fill:rgba(255, 255, 255, 0);}#my-svg .edgePath .path{stroke:#8a7b6b;stroke-width:2.0px;}#my-svg .flowchart-link{stroke:#8a7b6b;fill:none;}#my-svg .edgeLabel{background-color:#eef7f5;text-align:center;}#my-svg .edgeLabel rect{opacity:0.5;background-color:#eef7f5;fill:#eef7f5;}#my-svg .labelBkg{background-color:rgba(238, 247, 245, 0.5);}#my-svg .cluster rect{fill:#f8f0df;stroke:hsl(40.8, 24.1025641026%, 82.3529411765%);stroke-width:1px;}#my-svg .cluster text{fill:#070f20;}#my-svg .cluster span,#my-svg p{color:#070f20;}#my-svg div.mermaidTooltip{position:absolute;text-align:center;max-width:200px;padding:2px;font-family:Inter,Arial,sans-serif;font-size:12px;background:#f8f0df;border:1px solid hsl(40.8, 24.1025641026%, 82.3529411765%);border-radius:2px;pointer-events:none;z-index:100;}#my-svg .flowchartTitleText{text-anchor:middle;font-size:18px;fill:#0f2732;}#my-svg :root{--mermaid-font-family:"trebuchet ms",verdana,arial,sans-serif;}</style><g><marker id="my-svg_flowchart-pointEnd" class="marker flowchart" viewBox="0 0 10 10" refX="6" refY="5" markerUnits="userSpaceOnUse" markerWidth="12" markerHeight="12" orient="auto"><path d="M 0 0 L 10 5 L 0 10 z" class="arrowMarkerPath" style="stroke-width: 1; stroke-dasharray: 1, 0;"/></marker><marker id="my-svg_flowchart-pointStart" class="marker flowchart" viewBox="0 0 10 10" refX="4.5" refY="5" markerUnits="userSpaceOnUse" markerWidth="12" markerHeight="12" orient="auto"><path d="M 0 5 L 10 10 L 10 0 z" class="arrowMarkerPath" style="stroke-width: 1; stroke-dasharray: 1, 0;"/></marker><marker id="my-svg_flowchart-circleEnd" class="marker flowchart" viewBox="0 0 10 10" refX="11" refY="5" markerUnits="userSpaceOnUse" markerWidth="11" markerHeight="11" orient="auto"><circle cx="5" cy="5" r="5" class="arrowMarkerPath" style="stroke-width: 1; stroke-dasharray: 1, 0;"/></marker><marker id="my-svg_flowchart-circleStart" class="marker flowchart" viewBox="0 0 10 10" refX="-1" refY="5" markerUnits="userSpaceOnUse" markerWidth="11" markerHeight="11" orient="auto"><circle cx="5" cy="5" r="5" class="arrowMarkerPath" style="stroke-width: 1; stroke-dasharray: 1, 0;"/></marker><marker id="my-svg_flowchart-crossEnd" class="marker cross flowchart" viewBox="0 0 11 11" refX="12" refY="5.2" markerUnits="userSpaceOnUse" markerWidth="11" markerHeight="11" orient="auto"><path d="M 1,1 l 9,9 M 10,1 l -9,9" class="arrowMarkerPath" style="stroke-width: 2; stroke-dasharray: 1, 0;"/></marker><marker id="my-svg_flowchart-crossStart" class="marker cross flowchart" viewBox="0 0 11 11" refX="-1" refY="5.2" markerUnits="userSpaceOnUse" markerWidth="11" markerHeight="11" orient="auto"><path d="M 1,1 l 9,9 M 10,1 l -9,9" class="arrowMarkerPath" style="stroke-width: 2; stroke-dasharray: 1, 0;"/></marker><g class="root"><g class="clusters"/><g class="edgePaths"><path d="M443.363,33L443.363,37.167C443.363,41.333,443.363,49.667,443.363,57.117C443.363,64.567,443.363,71.133,443.363,74.417L443.363,77.7" id="L-Assistant-SkillRouter-0" class=" edge-thickness-normal edge-pattern-solid flowchart-link LS-Assistant LE-SkillRouter" style="fill:none;" marker-end="url(#my-svg_flowchart-pointEnd)"/><path d="M399.863,104.347L345.041,110.456C290.219,116.565,180.574,128.782,125.752,138.175C70.93,147.567,70.93,154.133,70.93,157.417L70.93,160.7" id="L-SkillRouter-Text2SQL-0" class=" edge-thickness-normal edge-pattern-solid flowchart-link LS-SkillRouter LE-Text2SQL" style="fill:none;" marker-end="url(#my-svg_flowchart-pointEnd)"/><path d="M70.93,199L70.93,203.167C70.93,207.333,70.93,215.667,70.93,223.117C70.93,230.567,70.93,237.133,70.93,240.417L70.93,243.7" id="L-Text2SQL-SQLGen-0" class=" edge-thickness-normal edge-pattern-solid flowchart-link LS-Text2SQL LE-SQLGen" style="fill:none;" marker-end="url(#my-svg_flowchart-pointEnd)"/><path d="M70.93,282L70.93,286.167C70.93,290.333,70.93,298.667,70.93,306.117C70.93,313.567,70.93,320.133,70.93,323.417L70.93,326.7" id="L-SQLGen-DB-0" class=" edge-thickness-normal edge-pattern-solid flowchart-link LS-SQLGen LE-DB" style="fill:none;" marker-end="url(#my-svg_flowchart-pointEnd)"/><path d="M70.93,365L70.93,369.167C70.93,373.333,70.93,381.667,70.93,389.117C70.93,396.567,70.93,403.133,70.93,406.417L70.93,409.7" id="L-DB-Table-0" class=" edge-thickness-normal edge-pattern-solid flowchart-link LS-DB LE-Table" style="fill:none;" marker-end="url(#my-svg_flowchart-pointEnd)"/><path d="M399.863,114.358L386.863,118.798C373.862,123.238,347.861,132.119,334.86,139.843C321.859,147.567,321.859,154.133,321.859,157.417L321.859,160.7" id="L-SkillRouter-FunctionCall-0" class=" edge-thickness-normal edge-pattern-solid flowchart-link LS-SkillRouter LE-FunctionCall" style="fill:none;" marker-end="url(#my-svg_flowchart-pointEnd)"/><path d="M289.853,199L281.771,203.167C273.689,207.333,257.524,215.667,249.442,223.117C241.359,230.567,241.359,237.133,241.359,240.417L241.359,243.7" id="L-FunctionCall-StudentGrade-0" class=" edge-thickness-normal edge-pattern-solid flowchart-link LS-FunctionCall LE-StudentGrade" style="fill:none;" marker-end="url(#my-svg_flowchart-pointEnd)"/><path d="M353.865,199L361.948,203.167C370.03,207.333,386.195,215.667,394.277,223.117C402.359,230.567,402.359,237.133,402.359,240.417L402.359,243.7" id="L-FunctionCall-ClassStats-0" class=" edge-thickness-normal edge-pattern-solid flowchart-link LS-FunctionCall LE-ClassStats" style="fill:none;" marker-end="url(#my-svg_flowchart-pointEnd)"/><path d="M241.359,282L241.359,286.167C241.359,290.333,241.359,298.667,248.657,306.595C255.954,314.524,270.548,322.048,277.845,325.81L285.143,329.571" id="L-StudentGrade-Explain-0" class=" edge-thickness-normal edge-pattern-solid flowchart-link LS-StudentGrade LE-Explain" style="fill:none;" marker-end="url(#my-svg_flowchart-pointEnd)"/><path d="M402.359,282L402.359,286.167C402.359,290.333,402.359,298.667,395.062,306.595C387.765,314.524,373.171,322.048,365.873,325.81L358.576,329.571" id="L-ClassStats-Explain-0" class=" edge-thickness-normal edge-pattern-solid flowchart-link LS-ClassStats LE-Explain" style="fill:none;" marker-end="url(#my-svg_flowchart-pointEnd)"/><path d="M486.863,108.437L513.281,113.864C539.698,119.291,592.533,130.146,618.95,138.856C645.367,147.567,645.367,154.133,645.367,157.417L645.367,160.7" id="L-SkillRouter-Template-0" class=" edge-thickness-normal edge-pattern-solid flowchart-link LS-SkillRouter LE-Template" style="fill:none;" marker-end="url(#my-svg_flowchart-pointEnd)"/><path d="M645.367,199L645.367,203.167C645.367,207.333,645.367,215.667,645.367,223.117C645.367,230.567,645.367,237.133,645.367,240.417L645.367,243.7" id="L-Template-Docs-0" class=" edge-thickness-normal edge-pattern-solid flowchart-link LS-Template LE-Docs" style="fill:none;" marker-end="url(#my-svg_flowchart-pointEnd)"/><path d="M486.863,103.29L559.005,109.575C631.146,115.86,775.428,128.43,847.57,137.998C919.711,147.567,919.711,154.133,919.711,157.417L919.711,160.7" id="L-SkillRouter-General-0" class=" edge-thickness-normal edge-pattern-solid flowchart-link LS-SkillRouter LE-General" style="fill:none;" marker-end="url(#my-svg_flowchart-pointEnd)"/><path d="M919.711,199L919.711,203.167C919.711,207.333,919.711,215.667,919.711,223.117C919.711,230.567,919.711,237.133,919.711,240.417L919.711,243.7" id="L-General-Advice-0" class=" edge-thickness-normal edge-pattern-solid flowchart-link LS-General LE-Advice" style="fill:none;" marker-end="url(#my-svg_flowchart-pointEnd)"/></g><g class="edgeLabels"><g class="edgeLabel"><g class="label" transform="translate(0, 0)"><foreignObject width="0" height="0"><div xmlns="http://www.w3.org/1999/xhtml" style="display: inline-block; white-space: nowrap;"><span class="edgeLabel"></span></div></foreignObject></g></g><g class="edgeLabel"><g class="label" transform="translate(0, 0)"><foreignObject width="0" height="0"><div xmlns="http://www.w3.org/1999/xhtml" style="display: inline-block; white-space: nowrap;"><span class="edgeLabel"></span></div></foreignObject></g></g><g class="edgeLabel"><g class="label" transform="translate(0, 0)"><foreignObject width="0" height="0"><div xmlns="http://www.w3.org/1999/xhtml" style="display: inline-block; white-space: nowrap;"><span class="edgeLabel"></span></div></foreignObject></g></g><g class="edgeLabel"><g class="label" transform="translate(0, 0)"><foreignObject width="0" height="0"><div xmlns="http://www.w3.org/1999/xhtml" style="display: inline-block; white-space: nowrap;"><span class="edgeLabel"></span></div></foreignObject></g></g><g class="edgeLabel"><g class="label" transform="translate(0, 0)"><foreignObject width="0" height="0"><div xmlns="http://www.w3.org/1999/xhtml" style="display: inline-block; white-space: nowrap;"><span class="edgeLabel"></span></div></foreignObject></g></g><g class="edgeLabel"><g class="label" transform="translate(0, 0)"><foreignObject width="0" height="0"><div xmlns="http://www.w3.org/1999/xhtml" style="display: inline-block; white-space: nowrap;"><span class="edgeLabel"></span></div></foreignObject></g></g><g class="edgeLabel"><g class="label" transform="translate(0, 0)"><foreignObject width="0" height="0"><div xmlns="http://www.w3.org/1999/xhtml" style="display: inline-block; white-space: nowrap;"><span class="edgeLabel"></span></div></foreignObject></g></g><g class="edgeLabel"><g class="label" transform="translate(0, 0)"><foreignObject width="0" height="0"><div xmlns="http://www.w3.org/1999/xhtml" style="display: inline-block; white-space: nowrap;"><span class="edgeLabel"></span></div></foreignObject></g></g><g class="edgeLabel"><g class="label" transform="translate(0, 0)"><foreignObject width="0" height="0"><div xmlns="http://www.w3.org/1999/xhtml" style="display: inline-block; white-space: nowrap;"><span class="edgeLabel"></span></div></foreignObject></g></g><g class="edgeLabel"><g class="label" transform="translate(0, 0)"><foreignObject width="0" height="0"><div xmlns="http://www.w3.org/1999/xhtml" style="display: inline-block; white-space: nowrap;"><span class="edgeLabel"></span></div></foreignObject></g></g><g class="edgeLabel"><g class="label" transform="translate(0, 0)"><foreignObject width="0" height="0"><div xmlns="http://www.w3.org/1999/xhtml" style="display: inline-block; white-space: nowrap;"><span class="edgeLabel"></span></div></foreignObject></g></g><g class="edgeLabel"><g class="label" transform="translate(0, 0)"><foreignObject width="0" height="0"><div xmlns="http://www.w3.org/1999/xhtml" style="display: inline-block; white-space: nowrap;"><span class="edgeLabel"></span></div></foreignObject></g></g><g class="edgeLabel"><g class="label" transform="translate(0, 0)"><foreignObject width="0" height="0"><div xmlns="http://www.w3.org/1999/xhtml" style="display: inline-block; white-space: nowrap;"><span class="edgeLabel"></span></div></foreignObject></g></g><g class="edgeLabel"><g class="label" transform="translate(0, 0)"><foreignObject width="0" height="0"><div xmlns="http://www.w3.org/1999/xhtml" style="display: inline-block; white-space: nowrap;"><span class="edgeLabel"></span></div></foreignObject></g></g></g><g class="nodes"><g class="node default default flowchart-label" id="flowchart-Assistant-0" data-node="true" data-id="Assistant" transform="translate(443.36328125, 16.5)"><rect class="basic label-container" style="" rx="0" ry="0" x="-54.6328125" y="-16.5" width="109.265625" height="33"/><g class="label" style="" transform="translate(-47.1328125, -9)"><rect/><foreignObject width="94.265625" height="18"><div xmlns="http://www.w3.org/1999/xhtml" style="display: inline-block; white-space: nowrap;"><span class="nodeLabel">教务助手 Agent</span></div></foreignObject></g></g><g class="node default default flowchart-label" id="flowchart-SkillRouter-1" data-node="true" data-id="SkillRouter" transform="translate(443.36328125, 99.5)"><rect class="basic label-container" style="" rx="0" ry="0" x="-43.5" y="-16.5" width="87" height="33"/><g class="label" style="" transform="translate(-36, -9)"><rect/><foreignObject width="72" height="18"><div xmlns="http://www.w3.org/1999/xhtml" style="display: inline-block; white-space: nowrap;"><span class="nodeLabel">内部技能选择</span></div></foreignObject></g></g><g class="node default default flowchart-label" id="flowchart-Text2SQL-3" data-node="true" data-id="Text2SQL" transform="translate(70.9296875, 182.5)"><rect class="basic label-container" style="" rx="0" ry="0" x="-35.0703125" y="-16.5" width="70.140625" height="33"/><g class="label" style="" transform="translate(-27.5703125, -9)"><rect/><foreignObject width="55.140625" height="18"><div xmlns="http://www.w3.org/1999/xhtml" style="display: inline-block; white-space: nowrap;"><span class="nodeLabel">text2sql</span></div></foreignObject></g></g><g class="node default default flowchart-label" id="flowchart-SQLGen-5" data-node="true" data-id="SQLGen" transform="translate(70.9296875, 265.5)"><rect class="basic label-container" style="" rx="0" ry="0" x="-70.9296875" y="-16.5" width="141.859375" height="33"/><g class="label" style="" transform="translate(-63.4296875, -9)"><rect/><foreignObject width="126.859375" height="18"><div xmlns="http://www.w3.org/1999/xhtml" style="display: inline-block; white-space: nowrap;"><span class="nodeLabel">生成 SELECT SQL</span></div></foreignObject></g></g><g class="node default default flowchart-label" id="flowchart-DB-7" data-node="true" data-id="DB" transform="translate(70.9296875, 348.5)"><rect class="basic label-container" style="" rx="0" ry="0" x="-49.5" y="-16.5" width="99" height="33"/><g class="label" style="" transform="translate(-42, -9)"><rect/><foreignObject width="84" height="18"><div xmlns="http://www.w3.org/1999/xhtml" style="display: inline-block; white-space: nowrap;"><span class="nodeLabel">查询业务数据库</span></div></foreignObject></g></g><g class="node default default flowchart-label" id="flowchart-Table-9" data-node="true" data-id="Table" transform="translate(70.9296875, 431.5)"><rect class="basic label-container" style="" rx="0" ry="0" x="-49.5" y="-16.5" width="99" height="33"/><g class="label" style="" transform="translate(-42, -9)"><rect/><foreignObject width="84" height="18"><div xmlns="http://www.w3.org/1999/xhtml" style="display: inline-block; white-space: nowrap;"><span class="nodeLabel">返回表格化结果</span></div></foreignObject></g></g><g class="node default default flowchart-label" id="flowchart-FunctionCall-11" data-node="true" data-id="FunctionCall" transform="translate(321.859375, 182.5)"><rect class="basic label-container" style="" rx="0" ry="0" x="-51.9765625" y="-16.5" width="103.953125" height="33"/><g class="label" style="" transform="translate(-44.4765625, -9)"><rect/><foreignObject width="88.953125" height="18"><div xmlns="http://www.w3.org/1999/xhtml" style="display: inline-block; white-space: nowrap;"><span class="nodeLabel">function_call</span></div></foreignObject></g></g><g class="node default default flowchart-label" id="flowchart-StudentGrade-13" data-node="true" data-id="StudentGrade" transform="translate(241.359375, 265.5)"><rect class="basic label-container" style="" rx="0" ry="0" x="-49.5" y="-16.5" width="99" height="33"/><g class="label" style="" transform="translate(-42, -9)"><rect/><foreignObject width="84" height="18"><div xmlns="http://www.w3.org/1999/xhtml" style="display: inline-block; white-space: nowrap;"><span class="nodeLabel">查询单学生成绩</span></div></foreignObject></g></g><g class="node default default flowchart-label" id="flowchart-ClassStats-15" data-node="true" data-id="ClassStats" transform="translate(402.359375, 265.5)"><rect class="basic label-container" style="" rx="0" ry="0" x="-61.5" y="-16.5" width="123" height="33"/><g class="label" style="" transform="translate(-54, -9)"><rect/><foreignObject width="108" height="18"><div xmlns="http://www.w3.org/1999/xhtml" style="display: inline-block; white-space: nowrap;"><span class="nodeLabel">查询单班级成绩统计</span></div></foreignObject></g></g><g class="node default default flowchart-label" id="flowchart-Explain-17" data-node="true" data-id="Explain" transform="translate(321.859375, 348.5)"><rect class="basic label-container" style="" rx="0" ry="0" x="-43.5" y="-16.5" width="87" height="33"/><g class="label" style="" transform="translate(-36, -9)"><rect/><foreignObject width="72" height="18"><div xmlns="http://www.w3.org/1999/xhtml" style="display: inline-block; white-space: nowrap;"><span class="nodeLabel">流式解释结果</span></div></foreignObject></g></g><g class="node default default flowchart-label" id="flowchart-Template-21" data-node="true" data-id="Template" transform="translate(645.3671875, 182.5)"><rect class="basic label-container" style="" rx="0" ry="0" x="-38.1875" y="-16.5" width="76.375" height="33"/><g class="label" style="" transform="translate(-30.6875, -9)"><rect/><foreignObject width="61.375" height="18"><div xmlns="http://www.w3.org/1999/xhtml" style="display: inline-block; white-space: nowrap;"><span class="nodeLabel">template</span></div></foreignObject></g></g><g class="node default default flowchart-label" id="flowchart-Docs-23" data-node="true" data-id="Docs" transform="translate(645.3671875, 265.5)"><rect class="basic label-container" style="" rx="0" ry="0" x="-131.5078125" y="-16.5" width="263.015625" height="33"/><g class="label" style="" transform="translate(-124.0078125, -9)"><rect/><foreignObject width="248.015625" height="18"><div xmlns="http://www.w3.org/1999/xhtml" style="display: inline-block; white-space: nowrap;"><span class="nodeLabel">通知 / 表扬 / 批评 / 总结 / 报告 / 班会 / 评语</span></div></foreignObject></g></g><g class="node default default flowchart-label" id="flowchart-General-25" data-node="true" data-id="General" transform="translate(919.7109375, 182.5)"><rect class="basic label-container" style="" rx="0" ry="0" x="-34.1875" y="-16.5" width="68.375" height="33"/><g class="label" style="" transform="translate(-26.6875, -9)"><rect/><foreignObject width="53.375" height="18"><div xmlns="http://www.w3.org/1999/xhtml" style="display: inline-block; white-space: nowrap;"><span class="nodeLabel">general</span></div></foreignObject></g></g><g class="node default default flowchart-label" id="flowchart-Advice-27" data-node="true" data-id="Advice" transform="translate(919.7109375, 265.5)"><rect class="basic label-container" style="" rx="0" ry="0" x="-92.8359375" y="-16.5" width="185.671875" height="33"/><g class="label" style="" transform="translate(-85.3359375, -9)"><rect/><foreignObject width="170.671875" height="18"><div xmlns="http://www.w3.org/1999/xhtml" style="display: inline-block; white-space: nowrap;"><span class="nodeLabel">学习建议 / 方法解释 / 计划制定</span></div></foreignObject></g></g></g></g></g></svg>