<svg id="my-svg" width="100%" xmlns="http://www.w3.org/2000/svg" xmlns:xlink="http://www.w3.org/1999/xlink" style="max-width: 1047.375px; background-color: transparent;" viewBox="-40 -40 1047.375 604" role="graphics-document document" aria-roledescription="flowchart-v2"><style>#my-svg{font-family:Inter,Arial,sans-serif;font-size:14px;fill:#0f2732;}#my-svg .error-icon{fill:#f8f0df;}#my-svg .error-text{fill:#070f20;stroke:#070f20;}#my-svg .edge-thickness-normal{stroke-width:2px;}#my-svg .edge-thickness-thick{stroke-width:3.5px;}#my-svg .edge-pattern-solid{stroke-dasharray:0;}#my-svg .edge-pattern-dashed{stroke-dasharray:3;}#my-svg .edge-pattern-dotted{stroke-dasharray:2;}#my-svg .marker{fill:#8a7b6b;stroke:#8a7b6b;}#my-svg .marker.cross{stroke:#8a7b6b;}#my-svg svg{font-family:Inter,Arial,sans-serif;font-size:14px;}#my-svg .label{font-family:Inter,Arial,sans-serif;color:#0f2732;}#my-svg .cluster-label text{fill:#070f20;}#my-svg .cluster-label span,#my-svg p{color:#070f20;}#my-svg .label text,#my-svg span,#my-svg p{fill:#0f2732;color:#0f2732;}#my-svg .node rect,#my-svg .node circle,#my-svg .node ellipse,#my-svg .node polygon,#my-svg .node path{fill:#fffaf2;stroke:#0a7080;stroke-width:1px;}#my-svg .flowchart-label text{text-anchor:middle;}#my-svg .node .katex path{fill:#000;stroke:#000;stroke-width:1px;}#my-svg .node .label{text-align:center;}#my-svg .node.clickable{cursor:pointer;}#my-svg .arrowheadPath{fill:rgba(255, 255, 255, 0);}#my-svg .edgePath .path{stroke:#8a7b6b;stroke-width:2.0px;}#my-svg .flowchart-link{stroke:#8a7b6b;fill:none;}#my-svg .edgeLabel{background-color:#eef7f5;text-align:center;}#my-svg .edgeLabel rect{opacity:0.5;background-color:#eef7f5;fill:#eef7f5;}#my-svg .labelBkg{background-color:rgba(238, 247, 245, 0.5);}#my-svg .cluster rect{fill:#f8f0df;stroke:hsl(40.8, 24.1025641026%, 82.3529411765%);stroke-width:1px;}#my-svg .cluster text{fill:#070f20;}#my-svg .cluster span,#my-svg p{color:#070f20;}#my-svg div.mermaidTooltip{position:absolute;text-align:center;max-width:200px;padding:2px;font-family:Inter,Arial,sans-serif;font-size:12px;background:#f8f0df;border:1px solid hsl(40.8, 24.1025641026%, 82.3529411765%);border-radius:2px;pointer-events:none;z-index:100;}#my-svg .flowchartTitleText{text-anchor:middle;font-size:18px;fill:#0f2732;}#my-svg :root{--mermaid-font-family:"trebuchet ms",verdana,arial,sans-serif;}#my-svg foreignObject{overflow:visible;}#my-svg .label,#my-svg .nodeLabel,#my-svg .edgeLabel{overflow:visible;}#my-svg .nodeLabel,#my-svg .edgeLabel{line-height:1.28;}</style><g><marker id="my-svg_flowchart-pointEnd" class="marker flowchart" viewBox="0 0 10 10" refX="6" refY="5" markerUnits="userSpaceOnUse" markerWidth="12" markerHeight="12" orient="auto"><path d="M 0 0 L 10 5 L 0 10 z" class="arrowMarkerPath" style="stroke-width: 1; stroke-dasharray: 1, 0;"/></marker><marker id="my-svg_flowchart-pointStart" class="marker flowchart" viewBox="0 0 10 10" refX="4.5" refY="5" markerUnits="userSpaceOnUse" markerWidth="12" markerHeight="12" orient="auto"><path d="M 0 5 L 10 10 L 10 0 z" class="arrowMarkerPath" style="stroke-width: 1; stroke-dasharray: 1, 0;"/></marker><marker id="my-svg_flowchart-circleEnd" class="marker flowchart" viewBox="0 0 10 10" refX="11" refY="5" markerUnits="userSpaceOnUse" markerWidth="11" markerHeight="11" orient="auto"><circle cx="5" cy="5" r="5" class="arrowMarkerPath" style="stroke-width: 1; stroke-dasharray: 1, 0;"/></marker><marker id="my-svg_flowchart-circleStart" class="marker flowchart" viewBox="0 0 10 10" refX="-1" refY="5" markerUnits="userSpaceOnUse" markerWidth="11" markerHeight="11" orient="auto"><circle cx="5" cy="5" r="5" class="arrowMarkerPath" style="stroke-width: 1; stroke-dasharray: 1, 0;"/></marker><marker id="my-svg_flowchart-crossEnd" class="marker cross flowchart" viewBox="0 0 11 11" refX="12" refY="5.2" markerUnits="userSpaceOnUse" markerWidth="11" markerHeight="11" orient="auto"><path d="M 1,1 l 9,9 M 10,1 l -9,9" class="arrowMarkerPath" style="stroke-width: 2; stroke-dasharray: 1, 0;"/></marker><marker id="my-svg_flowchart-crossStart" class="marker cross flowchart" viewBox="0 0 11 11" refX="-1" refY="5.2" markerUnits="userSpaceOnUse" markerWidth="11" markerHeight="11" orient="auto"><path d="M 1,1 l 9,9 M 10,1 l -9,9" class="arrowMarkerPath" style="stroke-width: 2; stroke-dasharray: 1, 0;"/></marker><g class="root"><g class="clusters"/><g class="edgePaths"><path d="M428.645,34L428.645,39.333C428.645,44.667,428.645,55.333,428.645,65.117C428.645,74.9,428.645,83.8,428.645,88.25L428.645,92.7" id="L-Assistant-SkillRouter-0" class=" edge-thickness-normal edge-pattern-solid flowchart-link LS-Assistant LE-SkillRouter" style="fill:none;" marker-end="url(#my-svg_flowchart-pointEnd)"/><path d="M388.145,120.45L334.205,127.708C280.266,134.967,172.387,149.483,118.447,161.192C64.508,172.9,64.508,181.8,64.508,186.25L64.508,190.7" id="L-SkillRouter-Text2SQL-0" class=" edge-thickness-normal edge-pattern-solid flowchart-link LS-SkillRouter LE-Text2SQL" style="fill:none;" marker-end="url(#my-svg_flowchart-pointEnd)"/><path d="M64.508,230L64.508,235.333C64.508,240.667,64.508,251.333,64.508,261.117C64.508,270.9,64.508,279.8,64.508,284.25L64.508,288.7" id="L-Text2SQL-SQLGen-0" class=" edge-thickness-normal edge-pattern-solid flowchart-link LS-Text2SQL LE-SQLGen" style="fill:none;" marker-end="url(#my-svg_flowchart-pointEnd)"/><path d="M64.508,328L64.508,333.333C64.508,338.667,64.508,349.333,64.508,359.117C64.508,368.9,64.508,377.8,64.508,382.25L64.508,386.7" id="L-SQLGen-DB-0" class=" edge-thickness-normal edge-pattern-solid flowchart-link LS-SQLGen LE-DB" style="fill:none;" marker-end="url(#my-svg_flowchart-pointEnd)"/><path d="M64.508,426L64.508,431.333C64.508,436.667,64.508,447.333,64.508,457.117C64.508,466.9,64.508,475.8,64.508,480.25L64.508,484.7" id="L-DB-Table-0" class=" edge-thickness-normal edge-pattern-solid flowchart-link LS-DB LE-Table" style="fill:none;" marker-end="url(#my-svg_flowchart-pointEnd)"/><path d="M388.442,132L375.829,137.333C363.216,142.667,337.991,153.333,325.378,163.117C312.766,172.9,312.766,181.8,312.766,186.25L312.766,190.7" id="L-SkillRouter-FunctionCall-0" class=" edge-thickness-normal edge-pattern-solid flowchart-link LS-SkillRouter LE-FunctionCall" style="fill:none;" marker-end="url(#my-svg_flowchart-pointEnd)"/><path d="M285.011,230L276.303,235.333C267.596,240.667,250.181,251.333,241.473,261.117C232.766,270.9,232.766,279.8,232.766,284.25L232.766,288.7" id="L-FunctionCall-StudentGrade-0" class=" edge-thickness-normal edge-pattern-solid flowchart-link LS-FunctionCall LE-StudentGrade" style="fill:none;" marker-end="url(#my-svg_flowchart-pointEnd)"/><path d="M340.521,230L349.228,235.333C357.936,240.667,375.351,251.333,384.058,261.117C392.766,270.9,392.766,279.8,392.766,284.25L392.766,288.7" id="L-FunctionCall-ClassStats-0" class=" edge-thickness-normal edge-pattern-solid flowchart-link LS-FunctionCall LE-ClassStats" style="fill:none;" marker-end="url(#my-svg_flowchart-pointEnd)"/><path d="M232.766,328L232.766,333.333C232.766,338.667,232.766,349.333,240.72,359.539C248.674,369.744,264.582,379.488,272.537,384.36L280.491,389.232" id="L-StudentGrade-Explain-0" class=" edge-thickness-normal edge-pattern-solid flowchart-link LS-StudentGrade LE-Explain" style="fill:none;" marker-end="url(#my-svg_flowchart-pointEnd)"/><path d="M392.766,328L392.766,333.333C392.766,338.667,392.766,349.333,384.811,359.539C376.857,369.744,360.949,379.488,352.995,384.36L345.04,389.232" id="L-ClassStats-Explain-0" class=" edge-thickness-normal edge-pattern-solid flowchart-link LS-ClassStats LE-Explain" style="fill:none;" marker-end="url(#my-svg_flowchart-pointEnd)"/><path d="M469.145,125.131L495.041,131.609C520.938,138.088,572.73,151.044,598.627,161.972C624.523,172.9,624.523,181.8,624.523,186.25L624.523,190.7" id="L-SkillRouter-Template-0" class=" edge-thickness-normal edge-pattern-solid flowchart-link LS-SkillRouter LE-Template" style="fill:none;" marker-end="url(#my-svg_flowchart-pointEnd)"/><path d="M624.523,230L624.523,235.333C624.523,240.667,624.523,251.333,624.523,261.117C624.523,270.9,624.523,279.8,624.523,284.25L624.523,288.7" id="L-Template-Docs-0" class=" edge-thickness-normal edge-pattern-solid flowchart-link LS-Template LE-Docs" style="fill:none;" marker-end="url(#my-svg_flowchart-pointEnd)"/><path d="M469.145,119.361L538.238,126.801C607.331,134.241,745.517,149.12,814.61,161.01C883.703,172.9,883.703,181.8,883.703,186.25L883.703,190.7" id="L-SkillRouter-General-0" class=" edge-thickness-normal edge-pattern-solid flowchart-link LS-SkillRouter LE-General" style="fill:none;" marker-end="url(#my-svg_flowchart-pointEnd)"/><path d="M883.703,230L883.703,235.333C883.703,240.667,883.703,251.333,883.703,261.117C883.703,270.9,883.703,279.8,883.703,284.25L883.703,288.7" id="L-General-Advice-0" class=" edge-thickness-normal edge-pattern-solid flowchart-link LS-General LE-Advice" style="fill:none;" marker-end="url(#my-svg_flowchart-pointEnd)"/></g><g class="edgeLabels"><g class="edgeLabel"><g class="label" transform="translate(0, 0)"><foreignObject width="0" height="0"><div xmlns="http://www.w3.org/1999/xhtml" style="display: inline-block; white-space: nowrap;"><span class="edgeLabel"></span></div></foreignObject></g></g><g class="edgeLabel"><g class="label" transform="translate(0, 0)"><foreignObject width="0" height="0"><div xmlns="http://www.w3.org/1999/xhtml" style="display: inline-block; white-space: nowrap;"><span class="edgeLabel"></span></div></foreignObject></g></g><g class="edgeLabel"><g class="label" transform="translate(0, 0)"><foreignObject width="0" height="0"><div xmlns="http://www.w3.org/1999/xhtml" style="display: inline-block; white-space: nowrap;"><span class="edgeLabel"></span></div></foreignObject></g></g><g class="edgeLabel"><g class="label" transform="translate(0, 0)"><foreignObject width="0" height="0"><div xmlns="http://www.w3.org/1999/xhtml" style="display: inline-block; white-space: nowrap;"><span class="edgeLabel"></span></div></foreignObject></g></g><g class="edgeLabel"><g class="label" transform="translate(0, 0)"><foreignObject width="0" height="0"><div xmlns="http://www.w3.org/1999/xhtml" style="display: inline-block; white-space: nowrap;"><span class="edgeLabel"></span></div></foreignObject></g></g><g class="edgeLabel"><g class="label" transform="translate(0, 0)"><foreignObject width="0" height="0"><div xmlns="http://www.w3.org/1999/xhtml" style="display: inline-block; white-space: nowrap;"><span class="edgeLabel"></span></div></foreignObject></g></g><g class="edgeLabel"><g class="label" transform="translate(0, 0)"><foreignObject width="0" height="0"><div xmlns="http://www.w3.org/1999/xhtml" style="display: inline-block; white-space: nowrap;"><span class="edgeLabel"></span></div></foreignObject></g></g><g class="edgeLabel"><g class="label" transform="translate(0, 0)"><foreignObject width="0" height="0"><div xmlns="http://www.w3.org/1999/xhtml" style="display: inline-block; white-space: nowrap;"><span class="edgeLabel"></span></div></foreignObject></g></g><g class="edgeLabel"><g class="label" transform="translate(0, 0)"><foreignObject width="0" height="0"><div xmlns="http://www.w3.org/1999/xhtml" style="display: inline-block; white-space: nowrap;"><span class="edgeLabel"></span></div></foreignObject></g></g><g class="edgeLabel"><g class="label" transform="translate(0, 0)"><foreignObject width="0" height="0"><div xmlns="http://www.w3.org/1999/xhtml" style="display: inline-block; white-space: nowrap;"><span class="edgeLabel"></span></div></foreignObject></g></g><g class="edgeLabel"><g class="label" transform="translate(0, 0)"><foreignObject width="0" height="0"><div xmlns="http://www.w3.org/1999/xhtml" style="display: inline-block; white-space: nowrap;"><span class="edgeLabel"></span></div></foreignObject></g></g><g class="edgeLabel"><g class="label" transform="translate(0, 0)"><foreignObject width="0" height="0"><div xmlns="http://www.w3.org/1999/xhtml" style="display: inline-block; white-space: nowrap;"><span class="edgeLabel"></span></div></foreignObject></g></g><g class="edgeLabel"><g class="label" transform="translate(0, 0)"><foreignObject width="0" height="0"><div xmlns="http://www.w3.org/1999/xhtml" style="display: inline-block; white-space: nowrap;"><span class="edgeLabel"></span></div></foreignObject></g></g><g class="edgeLabel"><g class="label" transform="translate(0, 0)"><foreignObject width="0" height="0"><div xmlns="http://www.w3.org/1999/xhtml" style="display: inline-block; white-space: nowrap;"><span class="edgeLabel"></span></div></foreignObject></g></g></g><g class="nodes"><g class="node default default flowchart-label" id="flowchart-Assistant-0" data-node="true" data-id="Assistant" transform="translate(428.64453125, 17)"><rect class="basic label-container" style="" rx="0" ry="0" x="-50.2421875" y="-17" width="100.484375" height="34"/><g class="label" style="" transform="translate(-41.2421875, -8)"><rect/><foreignObject width="82.484375" height="16"><div xmlns="http://www.w3.org/1999/xhtml" style="display: inline-block; white-space: nowrap;"><span class="nodeLabel">教务助手 Agent</span></div></foreignObject></g></g><g class="node default default flowchart-label" id="flowchart-SkillRouter-1" data-node="true" data-id="SkillRouter" transform="translate(428.64453125, 115)"><rect class="basic label-container" style="" rx="0" ry="0" x="-40.5" y="-17" width="81" height="34"/><g class="label" style="" transform="translate(-31.5, -8)"><rect/><foreignObject width="63" height="16"><div xmlns="http://www.w3.org/1999/xhtml" style="display: inline-block; white-space: nowrap;"><span class="nodeLabel">内部技能选择</span></div></foreignObject></g></g><g class="node default default flowchart-label" id="flowchart-Text2SQL-3" data-node="true" data-id="Text2SQL" transform="translate(64.5078125, 213)"><rect class="basic label-container" style="" rx="0" ry="0" x="-33.125" y="-17" width="66.25" height="34"/><g class="label" style="" transform="translate(-24.125, -8)"><rect/><foreignObject width="48.25" height="16"><div xmlns="http://www.w3.org/1999/xhtml" style="display: inline-block; white-space: nowrap;"><span class="nodeLabel">text2sql</span></div></foreignObject></g></g><g class="node default default flowchart-label" id="flowchart-SQLGen-5" data-node="true" data-id="SQLGen" transform="translate(64.5078125, 311)"><rect class="basic label-container" style="" rx="0" ry="0" x="-64.5078125" y="-17" width="129.015625" height="34"/><g class="label" style="" transform="translate(-55.5078125, -8)"><rect/><foreignObject width="111.015625" height="16"><div xmlns="http://www.w3.org/1999/xhtml" style="display: inline-block; white-space: nowrap;"><span class="nodeLabel">生成 SELECT SQL</span></div></foreignObject></g></g><g class="node default default flowchart-label" id="flowchart-DB-7" data-node="true" data-id="DB" transform="translate(64.5078125, 409)"><rect class="basic label-container" style="" rx="0" ry="0" x="-45.75" y="-17" width="91.5" height="34"/><g class="label" style="" transform="translate(-36.75, -8)"><rect/><foreignObject width="73.5" height="16"><div xmlns="http://www.w3.org/1999/xhtml" style="display: inline-block; white-space: nowrap;"><span class="nodeLabel">查询业务数据库</span></div></foreignObject></g></g><g class="node default default flowchart-label" id="flowchart-Table-9" data-node="true" data-id="Table" transform="translate(64.5078125, 507)"><rect class="basic label-container" style="" rx="0" ry="0" x="-45.75" y="-17" width="91.5" height="34"/><g class="label" style="" transform="translate(-36.75, -8)"><rect/><foreignObject width="73.5" height="16"><div xmlns="http://www.w3.org/1999/xhtml" style="display: inline-block; white-space: nowrap;"><span class="nodeLabel">返回表格化结果</span></div></foreignObject></g></g><g class="node default default flowchart-label" id="flowchart-FunctionCall-11" data-node="true" data-id="FunctionCall" transform="translate(312.765625, 213)"><rect class="basic label-container" style="" rx="0" ry="0" x="-47.9140625" y="-17" width="95.828125" height="34"/><g class="label" style="" transform="translate(-38.9140625, -8)"><rect/><foreignObject width="77.828125" height="16"><div xmlns="http://www.w3.org/1999/xhtml" style="display: inline-block; white-space: nowrap;"><span class="nodeLabel">function_call</span></div></foreignObject></g></g><g class="node default default flowchart-label" id="flowchart-StudentGrade-13" data-node="true" data-id="StudentGrade" transform="translate(232.765625, 311)"><rect class="basic label-container" style="" rx="0" ry="0" x="-45.75" y="-17" width="91.5" height="34"/><g class="label" style="" transform="translate(-36.75, -8)"><rect/><foreignObject width="73.5" height="16"><div xmlns="http://www.w3.org/1999/xhtml" style="display: inline-block; white-space: nowrap;"><span class="nodeLabel">查询单学生成绩</span></div></foreignObject></g></g><g class="node default default flowchart-label" id="flowchart-ClassStats-15" data-node="true" data-id="ClassStats" transform="translate(392.765625, 311)"><rect class="basic label-container" style="" rx="0" ry="0" x="-56.25" y="-17" width="112.5" height="34"/><g class="label" style="" transform="translate(-47.25, -8)"><rect/><foreignObject width="94.5" height="16"><div xmlns="http://www.w3.org/1999/xhtml" style="display: inline-block; white-space: nowrap;"><span class="nodeLabel">查询单班级成绩统计</span></div></foreignObject></g></g><g class="node default default flowchart-label" id="flowchart-Explain-17" data-node="true" data-id="Explain" transform="translate(312.765625, 409)"><rect class="basic label-container" style="" rx="0" ry="0" x="-40.5" y="-17" width="81" height="34"/><g class="label" style="" transform="translate(-31.5, -8)"><rect/><foreignObject width="63" height="16"><div xmlns="http://www.w3.org/1999/xhtml" style="display: inline-block; white-space: nowrap;"><span class="nodeLabel">流式解释结果</span></div></foreignObject></g></g><g class="node default default flowchart-label" id="flowchart-Template-21" data-node="true" data-id="Template" transform="translate(624.5234375, 213)"><rect class="basic label-container" style="" rx="0" ry="0" x="-35.8515625" y="-17" width="71.703125" height="34"/><g class="label" style="" transform="translate(-26.8515625, -8)"><rect/><foreignObject width="53.703125" height="16"><div xmlns="http://www.w3.org/1999/xhtml" style="display: inline-block; white-space: nowrap;"><span class="nodeLabel">template</span></div></foreignObject></g></g><g class="node default default flowchart-label" id="flowchart-Docs-23" data-node="true" data-id="Docs" transform="translate(624.5234375, 311)"><rect class="basic label-container" style="" rx="0" ry="0" x="-117.5078125" y="-17" width="235.015625" height="34"/><g class="label" style="" transform="translate(-108.5078125, -8)"><rect/><foreignObject width="217.015625" height="16"><div xmlns="http://www.w3.org/1999/xhtml" style="display: inline-block; white-space: nowrap;"><span class="nodeLabel">通知 / 表扬 / 批评 / 总结 / 报告 / 班会 / 评语</span></div></foreignObject></g></g><g class="node default default flowchart-label" id="flowchart-General-25" data-node="true" data-id="General" transform="translate(883.703125, 213)"><rect class="basic label-container" style="" rx="0" ry="0" x="-32.3515625" y="-17" width="64.703125" height="34"/><g class="label" style="" transform="translate(-23.3515625, -8)"><rect/><foreignObject width="46.703125" height="16"><div xmlns="http://www.w3.org/1999/xhtml" style="display: inline-block; white-space: nowrap;"><span class="nodeLabel">general</span></div></foreignObject></g></g><g class="node default default flowchart-label" id="flowchart-Advice-27" data-node="true" data-id="Advice" transform="translate(883.703125, 311)"><rect class="basic label-container" style="" rx="0" ry="0" x="-83.671875" y="-17" width="167.34375" height="34"/><g class="label" style="" transform="translate(-74.671875, -8)"><rect/><foreignObject width="149.34375" height="16"><div xmlns="http://www.w3.org/1999/xhtml" style="display: inline-block; white-space: nowrap;"><span class="nodeLabel">学习建议 / 方法解释 / 计划制定</span></div></foreignObject></g></g></g></g></g></svg>