<svg id="my-svg" width="100%" xmlns="http://www.w3.org/2000/svg" xmlns:xlink="http://www.w3.org/1999/xlink" style="max-width: 1091.34px; background-color: transparent;" viewBox="-8 -8 1091.34375 622" role="graphics-document document" aria-roledescription="flowchart-v2"><style>#my-svg{font-family:Inter,Arial,sans-serif;font-size:16px;fill:#0f2732;}#my-svg .error-icon{fill:#f8f0df;}#my-svg .error-text{fill:#070f20;stroke:#070f20;}#my-svg .edge-thickness-normal{stroke-width:2px;}#my-svg .edge-thickness-thick{stroke-width:3.5px;}#my-svg .edge-pattern-solid{stroke-dasharray:0;}#my-svg .edge-pattern-dashed{stroke-dasharray:3;}#my-svg .edge-pattern-dotted{stroke-dasharray:2;}#my-svg .marker{fill:#8a7b6b;stroke:#8a7b6b;}#my-svg .marker.cross{stroke:#8a7b6b;}#my-svg svg{font-family:Inter,Arial,sans-serif;font-size:16px;}#my-svg .label{font-family:Inter,Arial,sans-serif;color:#0f2732;}#my-svg .cluster-label text{fill:#070f20;}#my-svg .cluster-label span,#my-svg p{color:#070f20;}#my-svg .label text,#my-svg span,#my-svg p{fill:#0f2732;color:#0f2732;}#my-svg .node rect,#my-svg .node circle,#my-svg .node ellipse,#my-svg .node polygon,#my-svg .node path{fill:#fffaf2;stroke:#0a7080;stroke-width:1px;}#my-svg .flowchart-label text{text-anchor:middle;}#my-svg .node .katex path{fill:#000;stroke:#000;stroke-width:1px;}#my-svg .node .label{text-align:center;}#my-svg .node.clickable{cursor:pointer;}#my-svg .arrowheadPath{fill:rgba(255, 255, 255, 0);}#my-svg .edgePath .path{stroke:#8a7b6b;stroke-width:2.0px;}#my-svg .flowchart-link{stroke:#8a7b6b;fill:none;}#my-svg .edgeLabel{background-color:#eef7f5;text-align:center;}#my-svg .edgeLabel rect{opacity:0.5;background-color:#eef7f5;fill:#eef7f5;}#my-svg .labelBkg{background-color:rgba(238, 247, 245, 0.5);}#my-svg .cluster rect{fill:#f8f0df;stroke:hsl(40.8, 24.1025641026%, 82.3529411765%);stroke-width:1px;}#my-svg .cluster text{fill:#070f20;}#my-svg .cluster span,#my-svg p{color:#070f20;}#my-svg div.mermaidTooltip{position:absolute;text-align:center;max-width:200px;padding:2px;font-family:Inter,Arial,sans-serif;font-size:12px;background:#f8f0df;border:1px solid hsl(40.8, 24.1025641026%, 82.3529411765%);border-radius:2px;pointer-events:none;z-index:100;}#my-svg .flowchartTitleText{text-anchor:middle;font-size:18px;fill:#0f2732;}#my-svg :root{--mermaid-font-family:"trebuchet ms",verdana,arial,sans-serif;}</style><g><marker id="my-svg_flowchart-pointEnd" class="marker flowchart" viewBox="0 0 10 10" refX="6" refY="5" markerUnits="userSpaceOnUse" markerWidth="12" markerHeight="12" orient="auto"><path d="M 0 0 L 10 5 L 0 10 z" class="arrowMarkerPath" style="stroke-width: 1; stroke-dasharray: 1, 0;"/></marker><marker id="my-svg_flowchart-pointStart" class="marker flowchart" viewBox="0 0 10 10" refX="4.5" refY="5" markerUnits="userSpaceOnUse" markerWidth="12" markerHeight="12" orient="auto"><path d="M 0 5 L 10 10 L 10 0 z" class="arrowMarkerPath" style="stroke-width: 1; stroke-dasharray: 1, 0;"/></marker><marker id="my-svg_flowchart-circleEnd" class="marker flowchart" viewBox="0 0 10 10" refX="11" refY="5" markerUnits="userSpaceOnUse" markerWidth="11" markerHeight="11" orient="auto"><circle cx="5" cy="5" r="5" class="arrowMarkerPath" style="stroke-width: 1; stroke-dasharray: 1, 0;"/></marker><marker id="my-svg_flowchart-circleStart" class="marker flowchart" viewBox="0 0 10 10" refX="-1" refY="5" markerUnits="userSpaceOnUse" markerWidth="11" markerHeight="11" orient="auto"><circle cx="5" cy="5" r="5" class="arrowMarkerPath" style="stroke-width: 1; stroke-dasharray: 1, 0;"/></marker><marker id="my-svg_flowchart-crossEnd" class="marker cross flowchart" viewBox="0 0 11 11" refX="12" refY="5.2" markerUnits="userSpaceOnUse" markerWidth="11" markerHeight="11" orient="auto"><path d="M 1,1 l 9,9 M 10,1 l -9,9" class="arrowMarkerPath" style="stroke-width: 2; stroke-dasharray: 1, 0;"/></marker><marker id="my-svg_flowchart-crossStart" class="marker cross flowchart" viewBox="0 0 11 11" refX="-1" refY="5.2" markerUnits="userSpaceOnUse" markerWidth="11" markerHeight="11" orient="auto"><path d="M 1,1 l 9,9 M 10,1 l -9,9" class="arrowMarkerPath" style="stroke-width: 2; stroke-dasharray: 1, 0;"/></marker><g class="root"><g class="clusters"/><g class="edgePaths"><path d="M39,472.75L43.167,472.75C47.333,472.75,55.667,472.75,63.117,472.75C70.567,472.75,77.133,472.75,80.417,472.75L83.7,472.75" id="L-User-Frontend-0" class=" edge-thickness-normal edge-pattern-solid flowchart-link LS-User LE-Frontend" style="fill:none;" marker-end="url(#my-svg_flowchart-pointEnd)"/><path d="M159.172,447.25L170.146,428.167C181.12,409.083,203.068,370.917,217.325,351.833C231.582,332.75,238.149,332.75,241.432,332.75L244.716,332.75" id="L-Frontend-StreamAPI-0" class=" edge-thickness-normal edge-pattern-solid flowchart-link LS-Frontend LE-StreamAPI" style="fill:none;" marker-end="url(#my-svg_flowchart-pointEnd)"/><path d="M163.561,498.25L173.803,511.958C184.046,525.667,204.531,553.083,235.384,566.792C266.237,580.5,307.458,580.5,348.68,580.5C389.901,580.5,431.122,580.5,469.822,580.5C508.521,580.5,544.698,580.5,580.875,580.5C617.052,580.5,653.229,580.5,674.601,580.5C695.973,580.5,702.54,580.5,705.823,580.5L709.106,580.5" id="L-Frontend-EduAPI-0" class=" edge-thickness-normal edge-pattern-solid flowchart-link LS-Frontend LE-EduAPI" style="fill:none;" marker-end="url(#my-svg_flowchart-pointEnd)"/><path d="M365.125,307.25L382.995,279.542C400.865,251.833,436.604,196.417,460.571,168.708C484.538,141,496.732,141,502.829,141L508.927,141" id="L-StreamAPI-Supervisor-0" class=" edge-thickness-normal edge-pattern-solid flowchart-link LS-StreamAPI LE-Supervisor" style="fill:none;" marker-end="url(#my-svg_flowchart-pointEnd)"/><path d="M603.104,115.5L617.488,99C631.872,82.5,660.639,49.5,682.785,33C704.931,16.5,720.456,16.5,728.219,16.5L735.981,16.5" id="L-Supervisor-Daiyu-0" class=" edge-thickness-normal edge-pattern-solid flowchart-link LS-Supervisor LE-Daiyu" style="fill:none;" marker-end="url(#my-svg_flowchart-pointEnd)"/><path d="M616.13,166.5L628.343,175.333C640.556,184.167,664.981,201.833,680.77,210.667C696.559,219.5,703.711,219.5,707.288,219.5L710.864,219.5" id="L-Supervisor-Classics-0" class=" edge-thickness-normal edge-pattern-solid flowchart-link LS-Supervisor LE-Classics" style="fill:none;" marker-end="url(#my-svg_flowchart-pointEnd)"/><path d="M647.523,115.515L654.504,112.846C661.484,110.177,675.445,104.838,689.188,102.169C702.931,99.5,716.456,99.5,723.219,99.5L729.981,99.5" id="L-Supervisor-Interview-0" class=" edge-thickness-normal edge-pattern-solid flowchart-link LS-Supervisor LE-Interview" style="fill:none;" marker-end="url(#my-svg_flowchart-pointEnd)"/><path d="M596.401,166.5L611.902,191.958C627.403,217.417,658.405,268.333,680.668,293.792C702.931,319.25,716.456,319.25,723.219,319.25L729.981,319.25" id="L-Supervisor-Assistant-0" class=" edge-thickness-normal edge-pattern-solid flowchart-link LS-Supervisor LE-Assistant" style="fill:none;" marker-end="url(#my-svg_flowchart-pointEnd)"/><path d="M838.547,16.5L847.193,16.5C855.839,16.5,873.13,16.5,894.885,26.304C916.64,36.109,942.858,55.717,955.968,65.521L969.077,75.326" id="L-Daiyu-LLM-0" class=" edge-thickness-normal edge-pattern-solid flowchart-link LS-Daiyu LE-LLM" style="fill:none;" marker-end="url(#my-svg_flowchart-pointEnd)"/><path d="M844.547,99.5L852.193,99.5C859.839,99.5,875.13,99.5,887.539,99.296C899.948,99.092,909.475,98.683,914.238,98.479L919.002,98.275" id="L-Interview-LLM-0" class=" edge-thickness-normal edge-pattern-solid flowchart-link LS-Interview LE-LLM" style="fill:none;" marker-end="url(#my-svg_flowchart-pointEnd)"/><path d="M804.303,302.75L818.657,286.292C833.01,269.833,861.716,236.917,890.301,205.678C918.887,174.439,947.353,144.878,961.585,130.098L975.818,115.318" id="L-Assistant-LLM-0" class=" edge-thickness-normal edge-pattern-solid flowchart-link LS-Assistant LE-LLM" style="fill:none;" marker-end="url(#my-svg_flowchart-pointEnd)"/><path d="M863.664,222.802L868.124,223.002C872.583,223.201,881.503,223.601,900.661,205.736C919.819,187.87,949.216,151.741,963.914,133.676L978.613,115.611" id="L-Classics-LLM-0" class=" edge-thickness-normal edge-pattern-solid flowchart-link LS-Classics LE-LLM" style="fill:none;" marker-end="url(#my-svg_flowchart-pointEnd)"/><path d="M819.205,555L831.074,544.667C842.944,534.333,866.683,513.667,886.037,505.579C905.39,497.492,920.359,501.984,927.843,504.23L935.327,506.477" id="L-EduAPI-MySQL-0" class=" edge-thickness-normal edge-pattern-solid flowchart-link LS-EduAPI LE-MySQL" style="fill:none;" marker-end="url(#my-svg_flowchart-pointEnd)"/><path d="M797.618,335.75L813.086,368.875C828.553,402,859.487,468.25,880.552,500.842C901.616,533.433,912.811,532.367,918.408,531.834L924.005,531.3" id="L-Assistant-MySQL-0" class=" edge-thickness-normal edge-pattern-solid flowchart-link LS-Assistant LE-MySQL" style="fill:none;" marker-end="url(#my-svg_flowchart-pointEnd)"/><path d="M381.787,358.25L396.879,369.875C411.972,381.5,442.158,404.75,464.685,416.375C487.213,428,502.081,428,509.516,428L516.95,428" id="L-StreamAPI-Redis-0" class=" edge-thickness-normal edge-pattern-solid flowchart-link LS-StreamAPI LE-Redis" style="fill:none;" marker-end="url(#my-svg_flowchart-pointEnd)"/><path d="M365.52,358.25L383.324,385.208C401.128,412.167,436.736,466.083,457.823,493.042C478.91,520,485.477,520,488.76,520L492.044,520" id="L-StreamAPI-Memory-0" class=" edge-thickness-normal edge-pattern-solid flowchart-link LS-StreamAPI LE-Memory" style="fill:none;" marker-end="url(#my-svg_flowchart-pointEnd)"/><path d="M819.528,236L831.344,242.583C843.159,249.167,866.791,262.333,885.853,268.917C904.916,275.5,919.409,275.5,926.656,275.5L933.903,275.5" id="L-Classics-Chroma-0" class=" edge-thickness-normal edge-pattern-solid flowchart-link LS-Classics LE-Chroma" style="fill:none;" marker-end="url(#my-svg_flowchart-pointEnd)"/><path d="M801.845,236L816.608,256.417C831.371,276.833,860.896,317.667,878.942,338.083C896.989,358.5,903.555,358.5,906.839,358.5L910.122,358.5" id="L-Classics-FTS-0" class=" edge-thickness-normal edge-pattern-solid flowchart-link LS-Classics LE-FTS" style="fill:none;" marker-end="url(#my-svg_flowchart-pointEnd)"/><path d="M797.384,236L812.891,270.25C828.397,304.5,859.409,373,880.272,407.25C901.134,441.5,911.847,441.5,917.203,441.5L922.559,441.5" id="L-Classics-Reranker-0" class=" edge-thickness-normal edge-pattern-solid flowchart-link LS-Classics LE-Reranker" style="fill:none;" marker-end="url(#my-svg_flowchart-pointEnd)"/></g><g class="edgeLabels"><g class="edgeLabel"><g class="label" transform="translate(0, 0)"><foreignObject width="0" height="0"><div xmlns="http://www.w3.org/1999/xhtml" style="display: inline-block; white-space: nowrap;"><span class="edgeLabel"></span></div></foreignObject></g></g><g class="edgeLabel"><g class="label" transform="translate(0, 0)"><foreignObject width="0" height="0"><div xmlns="http://www.w3.org/1999/xhtml" style="display: inline-block; white-space: nowrap;"><span class="edgeLabel"></span></div></foreignObject></g></g><g class="edgeLabel"><g class="label" transform="translate(0, 0)"><foreignObject width="0" height="0"><div xmlns="http://www.w3.org/1999/xhtml" style="display: inline-block; white-space: nowrap;"><span class="edgeLabel"></span></div></foreignObject></g></g><g class="edgeLabel"><g class="label" transform="translate(0, 0)"><foreignObject width="0" height="0"><div xmlns="http://www.w3.org/1999/xhtml" style="display: inline-block; white-space: nowrap;"><span class="edgeLabel"></span></div></foreignObject></g></g><g class="edgeLabel"><g class="label" transform="translate(0, 0)"><foreignObject width="0" height="0"><div xmlns="http://www.w3.org/1999/xhtml" style="display: inline-block; white-space: nowrap;"><span class="edgeLabel"></span></div></foreignObject></g></g><g class="edgeLabel"><g class="label" transform="translate(0, 0)"><foreignObject width="0" height="0"><div xmlns="http://www.w3.org/1999/xhtml" style="display: inline-block; white-space: nowrap;"><span class="edgeLabel"></span></div></foreignObject></g></g><g class="edgeLabel"><g class="label" transform="translate(0, 0)"><foreignObject width="0" height="0"><div xmlns="http://www.w3.org/1999/xhtml" style="display: inline-block; white-space: nowrap;"><span class="edgeLabel"></span></div></foreignObject></g></g><g class="edgeLabel"><g class="label" transform="translate(0, 0)"><foreignObject width="0" height="0"><div xmlns="http://www.w3.org/1999/xhtml" style="display: inline-block; white-space: nowrap;"><span class="edgeLabel"></span></div></foreignObject></g></g><g class="edgeLabel"><g class="label" transform="translate(0, 0)"><foreignObject width="0" height="0"><div xmlns="http://www.w3.org/1999/xhtml" style="display: inline-block; white-space: nowrap;"><span class="edgeLabel"></span></div></foreignObject></g></g><g class="edgeLabel"><g class="label" transform="translate(0, 0)"><foreignObject width="0" height="0"><div xmlns="http://www.w3.org/1999/xhtml" style="display: inline-block; white-space: nowrap;"><span class="edgeLabel"></span></div></foreignObject></g></g><g class="edgeLabel"><g class="label" transform="translate(0, 0)"><foreignObject width="0" height="0"><div xmlns="http://www.w3.org/1999/xhtml" style="display: inline-block; white-space: nowrap;"><span class="edgeLabel"></span></div></foreignObject></g></g><g class="edgeLabel"><g class="label" transform="translate(0, 0)"><foreignObject width="0" height="0"><div xmlns="http://www.w3.org/1999/xhtml" style="display: inline-block; white-space: nowrap;"><span class="edgeLabel"></span></div></foreignObject></g></g><g class="edgeLabel"><g class="label" transform="translate(0, 0)"><foreignObject width="0" height="0"><div xmlns="http://www.w3.org/1999/xhtml" style="display: inline-block; white-space: nowrap;"><span class="edgeLabel"></span></div></foreignObject></g></g><g class="edgeLabel"><g class="label" transform="translate(0, 0)"><foreignObject width="0" height="0"><div xmlns="http://www.w3.org/1999/xhtml" style="display: inline-block; white-space: nowrap;"><span class="edgeLabel"></span></div></foreignObject></g></g><g class="edgeLabel"><g class="label" transform="translate(0, 0)"><foreignObject width="0" height="0"><div xmlns="http://www.w3.org/1999/xhtml" style="display: inline-block; white-space: nowrap;"><span class="edgeLabel"></span></div></foreignObject></g></g><g class="edgeLabel"><g class="label" transform="translate(0, 0)"><foreignObject width="0" height="0"><div xmlns="http://www.w3.org/1999/xhtml" style="display: inline-block; white-space: nowrap;"><span class="edgeLabel"></span></div></foreignObject></g></g><g class="edgeLabel"><g class="label" transform="translate(0, 0)"><foreignObject width="0" height="0"><div xmlns="http://www.w3.org/1999/xhtml" style="display: inline-block; white-space: nowrap;"><span class="edgeLabel"></span></div></foreignObject></g></g><g class="edgeLabel"><g class="label" transform="translate(0, 0)"><foreignObject width="0" height="0"><div xmlns="http://www.w3.org/1999/xhtml" style="display: inline-block; white-space: nowrap;"><span class="edgeLabel"></span></div></foreignObject></g></g><g class="edgeLabel"><g class="label" transform="translate(0, 0)"><foreignObject width="0" height="0"><div xmlns="http://www.w3.org/1999/xhtml" style="display: inline-block; white-space: nowrap;"><span class="edgeLabel"></span></div></foreignObject></g></g></g><g class="nodes"><g class="node default default flowchart-label" id="flowchart-User-0" data-node="true" data-id="User" transform="translate(19.5, 472.75)"><rect class="basic label-container" style="" rx="0" ry="0" x="-19.5" y="-16.5" width="39" height="33"/><g class="label" style="" transform="translate(-12, -9)"><rect/><foreignObject width="24" height="18"><div xmlns="http://www.w3.org/1999/xhtml" style="display: inline-block; white-space: nowrap;"><span class="nodeLabel">用户</span></div></foreignObject></g></g><g class="node default default flowchart-label" id="flowchart-Frontend-1" data-node="true" data-id="Frontend" transform="translate(144.5078125, 472.75)"><rect class="basic label-container" style="" rx="0" ry="0" x="-55.5078125" y="-25.5" width="111.015625" height="51"/><g class="label" style="" transform="translate(-48.0078125, -18)"><rect/><foreignObject width="96.015625" height="36"><div xmlns="http://www.w3.org/1999/xhtml" style="display: inline-block; white-space: nowrap;"><span class="nodeLabel">Vue 前端<br />统一 AI 对话入口</span></div></foreignObject></g></g><g class="node default default flowchart-label" id="flowchart-StreamAPI-3" data-node="true" data-id="StreamAPI" transform="translate(348.6796875, 332.75)"><rect class="basic label-container" style="" rx="0" ry="0" x="-98.6640625" y="-25.5" width="197.328125" height="51"/><g class="label" style="" transform="translate(-91.1640625, -18)"><rect/><foreignObject width="182.328125" height="36"><div xmlns="http://www.w3.org/1999/xhtml" style="display: inline-block; white-space: nowrap;"><span class="nodeLabel">统一 AI 流式接口<br />/api/ai/unified/chat/stream</span></div></foreignObject></g></g><g class="node default default flowchart-label" id="flowchart-EduAPI-5" data-node="true" data-id="EduAPI" transform="translate(789.9140625, 580.5)"><rect class="basic label-container" style="" rx="0" ry="0" x="-75.5078125" y="-25.5" width="151.015625" height="51"/><g class="label" style="" transform="translate(-68.0078125, -18)"><rect/><foreignObject width="136.015625" height="36"><div xmlns="http://www.w3.org/1999/xhtml" style="display: inline-block; white-space: nowrap;"><span class="nodeLabel">教务业务接口<br />学生 / 教师 / 班级 / 成绩</span></div></foreignObject></g></g><g class="node default default flowchart-label" id="flowchart-Supervisor-7" data-node="true" data-id="Supervisor" transform="translate(580.875, 141)"><rect class="basic label-container" style="" rx="0" ry="0" x="-66.6484375" y="-25.5" width="133.296875" height="51"/><g class="label" style="" transform="translate(-59.1484375, -18)"><rect/><foreignObject width="118.296875" height="36"><div xmlns="http://www.w3.org/1999/xhtml" style="display: inline-block; white-space: nowrap;"><span class="nodeLabel">SupervisorAgent<br />意图识别与分流</span></div></foreignObject></g></g><g class="node default default flowchart-label" id="flowchart-Daiyu-9" data-node="true" data-id="Daiyu" transform="translate(789.9140625, 16.5)"><rect class="basic label-container" style="" rx="0" ry="0" x="-48.6328125" y="-16.5" width="97.265625" height="33"/><g class="label" style="" transform="translate(-41.1328125, -9)"><rect/><foreignObject width="82.265625" height="18"><div xmlns="http://www.w3.org/1999/xhtml" style="display: inline-block; white-space: nowrap;"><span class="nodeLabel">林黛玉 Agent</span></div></foreignObject></g></g><g class="node default default flowchart-label" id="flowchart-Classics-11" data-node="true" data-id="Classics" transform="translate(789.9140625, 219.5)"><rect class="basic label-container" style="" rx="0" ry="0" x="-73.75" y="-16.5" width="147.5" height="33"/><g class="label" style="" transform="translate(-66.25, -9)"><rect/><foreignObject width="132.5" height="18"><div xmlns="http://www.w3.org/1999/xhtml" style="display: inline-block; white-space: nowrap;"><span class="nodeLabel">四大名著 RAG Agent</span></div></foreignObject></g></g><g class="node default default flowchart-label" id="flowchart-Interview-13" data-node="true" data-id="Interview" transform="translate(789.9140625, 99.5)"><rect class="basic label-container" style="" rx="0" ry="0" x="-54.6328125" y="-16.5" width="109.265625" height="33"/><g class="label" style="" transform="translate(-47.1328125, -9)"><rect/><foreignObject width="94.265625" height="18"><div xmlns="http://www.w3.org/1999/xhtml" style="display: inline-block; white-space: nowrap;"><span class="nodeLabel">模拟面试 Agent</span></div></foreignObject></g></g><g class="node default default flowchart-label" id="flowchart-Assistant-15" data-node="true" data-id="Assistant" transform="translate(789.9140625, 319.25)"><rect class="basic label-container" style="" rx="0" ry="0" x="-54.6328125" y="-16.5" width="109.265625" height="33"/><g class="label" style="" transform="translate(-47.1328125, -9)"><rect/><foreignObject width="94.265625" height="18"><div xmlns="http://www.w3.org/1999/xhtml" style="display: inline-block; white-space: nowrap;"><span class="nodeLabel">教务助手 Agent</span></div></foreignObject></g></g><g class="node default default flowchart-label" id="flowchart-LLM-17" data-node="true" data-id="LLM" transform="translate(995.3828125, 95)"><rect class="basic label-container" style="" rx="0" ry="0" x="-71.0859375" y="-16.5" width="142.171875" height="33"/><g class="label" style="" transform="translate(-63.5859375, -9)"><rect/><foreignObject width="127.171875" height="18"><div xmlns="http://www.w3.org/1999/xhtml" style="display: inline-block; white-space: nowrap;"><span class="nodeLabel">DeepSeek 模型服务</span></div></foreignObject></g></g><g class="node default default flowchart-label" id="flowchart-MySQL-25" data-node="true" data-id="MySQL" transform="translate(995.3828125, 524.5)"><rect class="basic label-container" style="" rx="0" ry="0" x="-66.1015625" y="-16.5" width="132.203125" height="33"/><g class="label" style="" transform="translate(-58.6015625, -9)"><rect/><foreignObject width="117.203125" height="18"><div xmlns="http://www.w3.org/1999/xhtml" style="display: inline-block; white-space: nowrap;"><span class="nodeLabel">MySQL 业务数据库</span></div></foreignObject></g></g><g class="node default default flowchart-label" id="flowchart-Redis-29" data-node="true" data-id="Redis" transform="translate(580.875, 428)"><rect class="basic label-container" style="" rx="0" ry="0" x="-58.625" y="-16.5" width="117.25" height="33"/><g class="label" style="" transform="translate(-51.125, -9)"><rect/><foreignObject width="102.25" height="18"><div xmlns="http://www.w3.org/1999/xhtml" style="display: inline-block; white-space: nowrap;"><span class="nodeLabel">Redis / 会话缓存</span></div></foreignObject></g></g><g class="node default default flowchart-label" id="flowchart-Memory-31" data-node="true" data-id="Memory" transform="translate(580.875, 520)"><rect class="basic label-container" style="" rx="0" ry="0" x="-83.53125" y="-25.5" width="167.0625" height="51"/><g class="label" style="" transform="translate(-76.03125, -18)"><rect/><foreignObject width="152.0625" height="36"><div xmlns="http://www.w3.org/1999/xhtml" style="display: inline-block; white-space: nowrap;"><span class="nodeLabel">ConversationMemory<br />会话历史</span></div></foreignObject></g></g><g class="node default default flowchart-label" id="flowchart-Chroma-33" data-node="true" data-id="Chroma" transform="translate(995.3828125, 275.5)"><rect class="basic label-container" style="" rx="0" ry="0" x="-56.1796875" y="-16.5" width="112.359375" height="33"/><g class="label" style="" transform="translate(-48.6796875, -9)"><rect/><foreignObject width="97.359375" height="18"><div xmlns="http://www.w3.org/1999/xhtml" style="display: inline-block; white-space: nowrap;"><span class="nodeLabel">Chroma 向量库</span></div></foreignObject></g></g><g class="node default default flowchart-label" id="flowchart-FTS-35" data-node="true" data-id="FTS" transform="translate(995.3828125, 358.5)"><rect class="basic label-container" style="" rx="0" ry="0" x="-79.9609375" y="-16.5" width="159.921875" height="33"/><g class="label" style="" transform="translate(-72.4609375, -9)"><rect/><foreignObject width="144.921875" height="18"><div xmlns="http://www.w3.org/1999/xhtml" style="display: inline-block; white-space: nowrap;"><span class="nodeLabel">SQLite FTS5 全文索引</span></div></foreignObject></g></g><g class="node default default flowchart-label" id="flowchart-Reranker-37" data-node="true" data-id="Reranker" transform="translate(995.3828125, 441.5)"><rect class="basic label-container" style="" rx="0" ry="0" x="-67.5234375" y="-16.5" width="135.046875" height="33"/><g class="label" style="" transform="translate(-60.0234375, -9)"><rect/><foreignObject width="120.046875" height="18"><div xmlns="http://www.w3.org/1999/xhtml" style="display: inline-block; white-space: nowrap;"><span class="nodeLabel">bge-reranker 精排</span></div></foreignObject></g></g></g></g></g></svg>