<svg id="my-svg" width="100%" xmlns="http://www.w3.org/2000/svg" xmlns:xlink="http://www.w3.org/1999/xlink" style="max-width: 3121.7px; background-color: transparent;" viewBox="-8 -8 3121.703125 399" role="graphics-document document" aria-roledescription="flowchart-v2"><style>#my-svg{font-family:Inter,Arial,sans-serif;font-size:16px;fill:#0f2732;}#my-svg .error-icon{fill:#f8f0df;}#my-svg .error-text{fill:#070f20;stroke:#070f20;}#my-svg .edge-thickness-normal{stroke-width:2px;}#my-svg .edge-thickness-thick{stroke-width:3.5px;}#my-svg .edge-pattern-solid{stroke-dasharray:0;}#my-svg .edge-pattern-dashed{stroke-dasharray:3;}#my-svg .edge-pattern-dotted{stroke-dasharray:2;}#my-svg .marker{fill:#8a7b6b;stroke:#8a7b6b;}#my-svg .marker.cross{stroke:#8a7b6b;}#my-svg svg{font-family:Inter,Arial,sans-serif;font-size:16px;}#my-svg .label{font-family:Inter,Arial,sans-serif;color:#0f2732;}#my-svg .cluster-label text{fill:#070f20;}#my-svg .cluster-label span,#my-svg p{color:#070f20;}#my-svg .label text,#my-svg span,#my-svg p{fill:#0f2732;color:#0f2732;}#my-svg .node rect,#my-svg .node circle,#my-svg .node ellipse,#my-svg .node polygon,#my-svg .node path{fill:#fffaf2;stroke:#0a7080;stroke-width:1px;}#my-svg .flowchart-label text{text-anchor:middle;}#my-svg .node .katex path{fill:#000;stroke:#000;stroke-width:1px;}#my-svg .node .label{text-align:center;}#my-svg .node.clickable{cursor:pointer;}#my-svg .arrowheadPath{fill:rgba(255, 255, 255, 0);}#my-svg .edgePath .path{stroke:#8a7b6b;stroke-width:2.0px;}#my-svg .flowchart-link{stroke:#8a7b6b;fill:none;}#my-svg .edgeLabel{background-color:#eef7f5;text-align:center;}#my-svg .edgeLabel rect{opacity:0.5;background-color:#eef7f5;fill:#eef7f5;}#my-svg .labelBkg{background-color:rgba(238, 247, 245, 0.5);}#my-svg .cluster rect{fill:#f8f0df;stroke:hsl(40.8, 24.1025641026%, 82.3529411765%);stroke-width:1px;}#my-svg .cluster text{fill:#070f20;}#my-svg .cluster span,#my-svg p{color:#070f20;}#my-svg div.mermaidTooltip{position:absolute;text-align:center;max-width:200px;padding:2px;font-family:Inter,Arial,sans-serif;font-size:12px;background:#f8f0df;border:1px solid hsl(40.8, 24.1025641026%, 82.3529411765%);border-radius:2px;pointer-events:none;z-index:100;}#my-svg .flowchartTitleText{text-anchor:middle;font-size:18px;fill:#0f2732;}#my-svg :root{--mermaid-font-family:"trebuchet ms",verdana,arial,sans-serif;}</style><g><marker id="my-svg_flowchart-pointEnd" class="marker flowchart" viewBox="0 0 10 10" refX="6" refY="5" markerUnits="userSpaceOnUse" markerWidth="12" markerHeight="12" orient="auto"><path d="M 0 0 L 10 5 L 0 10 z" class="arrowMarkerPath" style="stroke-width: 1; stroke-dasharray: 1, 0;"/></marker><marker id="my-svg_flowchart-pointStart" class="marker flowchart" viewBox="0 0 10 10" refX="4.5" refY="5" markerUnits="userSpaceOnUse" markerWidth="12" markerHeight="12" orient="auto"><path d="M 0 5 L 10 10 L 10 0 z" class="arrowMarkerPath" style="stroke-width: 1; stroke-dasharray: 1, 0;"/></marker><marker id="my-svg_flowchart-circleEnd" class="marker flowchart" viewBox="0 0 10 10" refX="11" refY="5" markerUnits="userSpaceOnUse" markerWidth="11" markerHeight="11" orient="auto"><circle cx="5" cy="5" r="5" class="arrowMarkerPath" style="stroke-width: 1; stroke-dasharray: 1, 0;"/></marker><marker id="my-svg_flowchart-circleStart" class="marker flowchart" viewBox="0 0 10 10" refX="-1" refY="5" markerUnits="userSpaceOnUse" markerWidth="11" markerHeight="11" orient="auto"><circle cx="5" cy="5" r="5" class="arrowMarkerPath" style="stroke-width: 1; stroke-dasharray: 1, 0;"/></marker><marker id="my-svg_flowchart-crossEnd" class="marker cross flowchart" viewBox="0 0 11 11" refX="12" refY="5.2" markerUnits="userSpaceOnUse" markerWidth="11" markerHeight="11" orient="auto"><path d="M 1,1 l 9,9 M 10,1 l -9,9" class="arrowMarkerPath" style="stroke-width: 2; stroke-dasharray: 1, 0;"/></marker><marker id="my-svg_flowchart-crossStart" class="marker cross flowchart" viewBox="0 0 11 11" refX="-1" refY="5.2" markerUnits="userSpaceOnUse" markerWidth="11" markerHeight="11" orient="auto"><path d="M 1,1 l 9,9 M 10,1 l -9,9" class="arrowMarkerPath" style="stroke-width: 2; stroke-dasharray: 1, 0;"/></marker><g class="root"><g class="clusters"/><g class="edgePaths"><path d="M1911.074,33L1911.074,37.167C1911.074,41.333,1911.074,49.667,1911.074,57.117C1911.074,64.567,1911.074,71.133,1911.074,74.417L1911.074,77.7" id="L-User-Unified-0" class=" edge-thickness-normal edge-pattern-solid flowchart-link LS-User LE-Unified" style="fill:none;" marker-end="url(#my-svg_flowchart-pointEnd)"/><path d="M1911.074,116L1911.074,120.167C1911.074,124.333,1911.074,132.667,1911.074,140.117C1911.074,147.567,1911.074,154.133,1911.074,157.417L1911.074,160.7" id="L-Unified-Supervisor-0" class=" edge-thickness-normal edge-pattern-solid flowchart-link LS-Unified LE-Supervisor" style="fill:none;" marker-end="url(#my-svg_flowchart-pointEnd)"/><path d="M1844.426,184.618L1637.85,191.181C1431.273,197.745,1018.121,210.873,811.545,220.72C604.969,230.567,604.969,237.133,604.969,240.417L604.969,243.7" id="L-Supervisor-Daiyu-0" class=" edge-thickness-normal edge-pattern-solid flowchart-link LS-Supervisor LE-Daiyu" style="fill:none;" marker-end="url(#my-svg_flowchart-pointEnd)"/><path d="M556.336,269.249L474.721,275.541C393.107,281.833,229.878,294.416,148.263,305.492C66.648,316.567,66.648,326.133,66.648,330.917L66.648,335.7" id="L-Daiyu-DY1-0" class=" edge-thickness-normal edge-pattern-solid flowchart-link LS-Daiyu LE-DY1" style="fill:none;" marker-end="url(#my-svg_flowchart-pointEnd)"/><path d="M556.336,271.073L504.085,277.061C451.833,283.049,347.331,295.024,295.079,305.796C242.828,316.567,242.828,326.133,242.828,330.917L242.828,335.7" id="L-Daiyu-DY2-0" class=" edge-thickness-normal edge-pattern-solid flowchart-link LS-Daiyu LE-DY2" style="fill:none;" marker-end="url(#my-svg_flowchart-pointEnd)"/><path d="M556.336,276.757L534.56,281.798C512.784,286.838,469.232,296.919,447.456,306.743C425.68,316.567,425.68,326.133,425.68,330.917L425.68,335.7" id="L-Daiyu-DY3-0" class=" edge-thickness-normal edge-pattern-solid flowchart-link LS-Daiyu LE-DY3" style="fill:none;" marker-end="url(#my-svg_flowchart-pointEnd)"/><path d="M604.969,282L604.969,286.167C604.969,290.333,604.969,298.667,604.969,307.617C604.969,316.567,604.969,326.133,604.969,330.917L604.969,335.7" id="L-Daiyu-DY4-0" class=" edge-thickness-normal edge-pattern-solid flowchart-link LS-Daiyu LE-DY4" style="fill:none;" marker-end="url(#my-svg_flowchart-pointEnd)"/><path d="M653.602,277.162L674.34,282.135C695.078,287.108,736.555,297.054,757.293,306.81C778.031,316.567,778.031,326.133,778.031,330.917L778.031,335.7" id="L-Daiyu-DY5-0" class=" edge-thickness-normal edge-pattern-solid flowchart-link LS-Daiyu LE-DY5" style="fill:none;" marker-end="url(#my-svg_flowchart-pointEnd)"/><path d="M653.602,271.228L704.223,277.19C754.844,283.152,856.086,295.076,906.707,305.821C957.328,316.567,957.328,326.133,957.328,330.917L957.328,335.7" id="L-Daiyu-DY6-0" class=" edge-thickness-normal edge-pattern-solid flowchart-link LS-Daiyu LE-DY6" style="fill:none;" marker-end="url(#my-svg_flowchart-pointEnd)"/><path d="M653.602,269.522L729.138,275.768C804.674,282.014,955.747,294.507,1031.284,305.537C1106.82,316.567,1106.82,326.133,1106.82,330.917L1106.82,335.7" id="L-Daiyu-DY7-0" class=" edge-thickness-normal edge-pattern-solid flowchart-link LS-Daiyu LE-DY7" style="fill:none;" marker-end="url(#my-svg_flowchart-pointEnd)"/><path d="M1844.426,192.452L1809.215,197.71C1774.004,202.968,1703.582,213.484,1668.371,222.025C1633.16,230.567,1633.16,237.133,1633.16,240.417L1633.16,243.7" id="L-Supervisor-RAG-0" class=" edge-thickness-normal edge-pattern-solid flowchart-link LS-Supervisor LE-RAG" style="fill:none;" marker-end="url(#my-svg_flowchart-pointEnd)"/><path d="M1559.41,273.01L1503.777,278.675C1448.143,284.34,1336.876,295.67,1281.243,306.118C1225.609,316.567,1225.609,326.133,1225.609,330.917L1225.609,335.7" id="L-RAG-R1-0" class=" edge-thickness-normal edge-pattern-solid flowchart-link LS-RAG LE-R1" style="fill:none;" marker-end="url(#my-svg_flowchart-pointEnd)"/><path d="M1559.41,277.099L1527.723,282.082C1496.036,287.066,1432.663,297.033,1400.976,306.8C1369.289,316.567,1369.289,326.133,1369.289,330.917L1369.289,335.7" id="L-RAG-R2-0" class=" edge-thickness-normal edge-pattern-solid flowchart-link LS-RAG LE-R2" style="fill:none;" marker-end="url(#my-svg_flowchart-pointEnd)"/><path d="M1599.87,282L1591.463,286.167C1583.056,290.333,1566.243,298.667,1557.836,307.617C1549.43,316.567,1549.43,326.133,1549.43,330.917L1549.43,335.7" id="L-RAG-R3-0" class=" edge-thickness-normal edge-pattern-solid flowchart-link LS-RAG LE-R3" style="fill:none;" marker-end="url(#my-svg_flowchart-pointEnd)"/><path d="M1666.451,282L1674.857,286.167C1683.264,290.333,1700.077,298.667,1708.484,307.617C1716.891,316.567,1716.891,326.133,1716.891,330.917L1716.891,335.7" id="L-RAG-R4-0" class=" edge-thickness-normal edge-pattern-solid flowchart-link LS-RAG LE-R4" style="fill:none;" marker-end="url(#my-svg_flowchart-pointEnd)"/><path d="M1706.91,277.706L1736.411,282.588C1765.911,287.47,1824.913,297.235,1854.413,306.901C1883.914,316.567,1883.914,326.133,1883.914,330.917L1883.914,335.7" id="L-RAG-R5-0" class=" edge-thickness-normal edge-pattern-solid flowchart-link LS-RAG LE-R5" style="fill:none;" marker-end="url(#my-svg_flowchart-pointEnd)"/><path d="M1706.91,273.043L1762.248,278.702C1817.586,284.362,1928.262,295.681,1983.6,306.124C2038.938,316.567,2038.938,326.133,2038.938,330.917L2038.938,335.7" id="L-RAG-R6-0" class=" edge-thickness-normal edge-pattern-solid flowchart-link LS-RAG LE-R6" style="fill:none;" marker-end="url(#my-svg_flowchart-pointEnd)"/><path d="M1977.723,190.148L2026.889,195.79C2076.055,201.432,2174.387,212.716,2223.553,221.641C2272.719,230.567,2272.719,237.133,2272.719,240.417L2272.719,243.7" id="L-Supervisor-Interview-0" class=" edge-thickness-normal edge-pattern-solid flowchart-link LS-Supervisor LE-Interview" style="fill:none;" marker-end="url(#my-svg_flowchart-pointEnd)"/><path d="M2227.083,282L2215.559,286.167C2204.034,290.333,2180.986,298.667,2169.462,307.617C2157.938,316.567,2157.938,326.133,2157.938,330.917L2157.938,335.7" id="L-Interview-I1-0" class=" edge-thickness-normal edge-pattern-solid flowchart-link LS-Interview LE-I1" style="fill:none;" marker-end="url(#my-svg_flowchart-pointEnd)"/><path d="M2272.719,282L2272.719,286.167C2272.719,290.333,2272.719,298.667,2272.719,307.617C2272.719,316.567,2272.719,326.133,2272.719,330.917L2272.719,335.7" id="L-Interview-I2-0" class=" edge-thickness-normal edge-pattern-solid flowchart-link LS-Interview LE-I2" style="fill:none;" marker-end="url(#my-svg_flowchart-pointEnd)"/><path d="M2318.355,282L2329.879,286.167C2341.403,290.333,2364.452,298.667,2375.976,307.617C2387.5,316.567,2387.5,326.133,2387.5,330.917L2387.5,335.7" id="L-Interview-I3-0" class=" edge-thickness-normal edge-pattern-solid flowchart-link LS-Interview LE-I3" style="fill:none;" marker-end="url(#my-svg_flowchart-pointEnd)"/><path d="M1977.723,185.75L2108.438,192.125C2239.152,198.5,2500.582,211.25,2631.297,220.908C2762.012,230.567,2762.012,237.133,2762.012,240.417L2762.012,243.7" id="L-Supervisor-Assistant-0" class=" edge-thickness-normal edge-pattern-solid flowchart-link LS-Supervisor LE-Assistant" style="fill:none;" marker-end="url(#my-svg_flowchart-pointEnd)"/><path d="M2707.379,274.587L2674.899,279.989C2642.419,285.391,2577.46,296.196,2544.98,304.881C2512.5,313.567,2512.5,320.133,2512.5,323.417L2512.5,326.7" id="L-Assistant-A1-0" class=" edge-thickness-normal edge-pattern-solid flowchart-link LS-Assistant LE-A1" style="fill:none;" marker-end="url(#my-svg_flowchart-pointEnd)"/><path d="M2724.702,282L2715.28,286.167C2705.859,290.333,2687.015,298.667,2677.594,306.117C2668.172,313.567,2668.172,320.133,2668.172,323.417L2668.172,326.7" id="L-Assistant-A2-0" class=" edge-thickness-normal edge-pattern-solid flowchart-link LS-Assistant LE-A2" style="fill:none;" marker-end="url(#my-svg_flowchart-pointEnd)"/><path d="M2799.322,282L2808.743,286.167C2818.165,290.333,2837.008,298.667,2846.43,306.117C2855.852,313.567,2855.852,320.133,2855.852,323.417L2855.852,326.7" id="L-Assistant-A3-0" class=" edge-thickness-normal edge-pattern-solid flowchart-link LS-Assistant LE-A3" style="fill:none;" marker-end="url(#my-svg_flowchart-pointEnd)"/><path d="M2816.645,273.554L2854.459,279.128C2892.273,284.702,2967.902,295.851,3005.717,304.709C3043.531,313.567,3043.531,320.133,3043.531,323.417L3043.531,326.7" id="L-Assistant-A4-0" class=" edge-thickness-normal edge-pattern-solid flowchart-link LS-Assistant LE-A4" style="fill:none;" marker-end="url(#my-svg_flowchart-pointEnd)"/></g><g class="edgeLabels"><g class="edgeLabel"><g class="label" transform="translate(0, 0)"><foreignObject width="0" height="0"><div xmlns="http://www.w3.org/1999/xhtml" style="display: inline-block; white-space: nowrap;"><span class="edgeLabel"></span></div></foreignObject></g></g><g class="edgeLabel"><g class="label" transform="translate(0, 0)"><foreignObject width="0" height="0"><div xmlns="http://www.w3.org/1999/xhtml" style="display: inline-block; white-space: nowrap;"><span class="edgeLabel"></span></div></foreignObject></g></g><g class="edgeLabel"><g class="label" transform="translate(0, 0)"><foreignObject width="0" height="0"><div xmlns="http://www.w3.org/1999/xhtml" style="display: inline-block; white-space: nowrap;"><span class="edgeLabel"></span></div></foreignObject></g></g><g class="edgeLabel"><g class="label" transform="translate(0, 0)"><foreignObject width="0" height="0"><div xmlns="http://www.w3.org/1999/xhtml" style="display: inline-block; white-space: nowrap;"><span class="edgeLabel"></span></div></foreignObject></g></g><g class="edgeLabel"><g class="label" transform="translate(0, 0)"><foreignObject width="0" height="0"><div xmlns="http://www.w3.org/1999/xhtml" style="display: inline-block; white-space: nowrap;"><span class="edgeLabel"></span></div></foreignObject></g></g><g class="edgeLabel"><g class="label" transform="translate(0, 0)"><foreignObject width="0" height="0"><div xmlns="http://www.w3.org/1999/xhtml" style="display: inline-block; white-space: nowrap;"><span class="edgeLabel"></span></div></foreignObject></g></g><g class="edgeLabel"><g class="label" transform="translate(0, 0)"><foreignObject width="0" height="0"><div xmlns="http://www.w3.org/1999/xhtml" style="display: inline-block; white-space: nowrap;"><span class="edgeLabel"></span></div></foreignObject></g></g><g class="edgeLabel"><g class="label" transform="translate(0, 0)"><foreignObject width="0" height="0"><div xmlns="http://www.w3.org/1999/xhtml" style="display: inline-block; white-space: nowrap;"><span class="edgeLabel"></span></div></foreignObject></g></g><g class="edgeLabel"><g class="label" transform="translate(0, 0)"><foreignObject width="0" height="0"><div xmlns="http://www.w3.org/1999/xhtml" style="display: inline-block; white-space: nowrap;"><span class="edgeLabel"></span></div></foreignObject></g></g><g class="edgeLabel"><g class="label" transform="translate(0, 0)"><foreignObject width="0" height="0"><div xmlns="http://www.w3.org/1999/xhtml" style="display: inline-block; white-space: nowrap;"><span class="edgeLabel"></span></div></foreignObject></g></g><g class="edgeLabel"><g class="label" transform="translate(0, 0)"><foreignObject width="0" height="0"><div xmlns="http://www.w3.org/1999/xhtml" style="display: inline-block; white-space: nowrap;"><span class="edgeLabel"></span></div></foreignObject></g></g><g class="edgeLabel"><g class="label" transform="translate(0, 0)"><foreignObject width="0" height="0"><div xmlns="http://www.w3.org/1999/xhtml" style="display: inline-block; white-space: nowrap;"><span class="edgeLabel"></span></div></foreignObject></g></g><g class="edgeLabel"><g class="label" transform="translate(0, 0)"><foreignObject width="0" height="0"><div xmlns="http://www.w3.org/1999/xhtml" style="display: inline-block; white-space: nowrap;"><span class="edgeLabel"></span></div></foreignObject></g></g><g class="edgeLabel"><g class="label" transform="translate(0, 0)"><foreignObject width="0" height="0"><div xmlns="http://www.w3.org/1999/xhtml" style="display: inline-block; white-space: nowrap;"><span class="edgeLabel"></span></div></foreignObject></g></g><g class="edgeLabel"><g class="label" transform="translate(0, 0)"><foreignObject width="0" height="0"><div xmlns="http://www.w3.org/1999/xhtml" style="display: inline-block; white-space: nowrap;"><span class="edgeLabel"></span></div></foreignObject></g></g><g class="edgeLabel"><g class="label" transform="translate(0, 0)"><foreignObject width="0" height="0"><div xmlns="http://www.w3.org/1999/xhtml" style="display: inline-block; white-space: nowrap;"><span class="edgeLabel"></span></div></foreignObject></g></g><g class="edgeLabel"><g class="label" transform="translate(0, 0)"><foreignObject width="0" height="0"><div xmlns="http://www.w3.org/1999/xhtml" style="display: inline-block; white-space: nowrap;"><span class="edgeLabel"></span></div></foreignObject></g></g><g class="edgeLabel"><g class="label" transform="translate(0, 0)"><foreignObject width="0" height="0"><div xmlns="http://www.w3.org/1999/xhtml" style="display: inline-block; white-space: nowrap;"><span class="edgeLabel"></span></div></foreignObject></g></g><g class="edgeLabel"><g class="label" transform="translate(0, 0)"><foreignObject width="0" height="0"><div xmlns="http://www.w3.org/1999/xhtml" style="display: inline-block; white-space: nowrap;"><span class="edgeLabel"></span></div></foreignObject></g></g><g class="edgeLabel"><g class="label" transform="translate(0, 0)"><foreignObject width="0" height="0"><div xmlns="http://www.w3.org/1999/xhtml" style="display: inline-block; white-space: nowrap;"><span class="edgeLabel"></span></div></foreignObject></g></g><g class="edgeLabel"><g class="label" transform="translate(0, 0)"><foreignObject width="0" height="0"><div xmlns="http://www.w3.org/1999/xhtml" style="display: inline-block; white-space: nowrap;"><span class="edgeLabel"></span></div></foreignObject></g></g><g class="edgeLabel"><g class="label" transform="translate(0, 0)"><foreignObject width="0" height="0"><div xmlns="http://www.w3.org/1999/xhtml" style="display: inline-block; white-space: nowrap;"><span class="edgeLabel"></span></div></foreignObject></g></g><g class="edgeLabel"><g class="label" transform="translate(0, 0)"><foreignObject width="0" height="0"><div xmlns="http://www.w3.org/1999/xhtml" style="display: inline-block; white-space: nowrap;"><span class="edgeLabel"></span></div></foreignObject></g></g><g class="edgeLabel"><g class="label" transform="translate(0, 0)"><foreignObject width="0" height="0"><div xmlns="http://www.w3.org/1999/xhtml" style="display: inline-block; white-space: nowrap;"><span class="edgeLabel"></span></div></foreignObject></g></g><g class="edgeLabel"><g class="label" transform="translate(0, 0)"><foreignObject width="0" height="0"><div xmlns="http://www.w3.org/1999/xhtml" style="display: inline-block; white-space: nowrap;"><span class="edgeLabel"></span></div></foreignObject></g></g><g class="edgeLabel"><g class="label" transform="translate(0, 0)"><foreignObject width="0" height="0"><div xmlns="http://www.w3.org/1999/xhtml" style="display: inline-block; white-space: nowrap;"><span class="edgeLabel"></span></div></foreignObject></g></g></g><g class="nodes"><g class="node default default flowchart-label" id="flowchart-User-0" data-node="true" data-id="User" transform="translate(1911.07421875, 16.5)"><rect class="basic label-container" style="" rx="0" ry="0" x="-31.5" y="-16.5" width="63" height="33"/><g class="label" style="" transform="translate(-24, -9)"><rect/><foreignObject width="48" height="18"><div xmlns="http://www.w3.org/1999/xhtml" style="display: inline-block; white-space: nowrap;"><span class="nodeLabel">用户输入</span></div></foreignObject></g></g><g class="node default default flowchart-label" id="flowchart-Unified-1" data-node="true" data-id="Unified" transform="translate(1911.07421875, 99.5)"><rect class="basic label-container" style="" rx="0" ry="0" x="-43.5" y="-16.5" width="87" height="33"/><g class="label" style="" transform="translate(-36, -9)"><rect/><foreignObject width="72" height="18"><div xmlns="http://www.w3.org/1999/xhtml" style="display: inline-block; white-space: nowrap;"><span class="nodeLabel">统一聊天接口</span></div></foreignObject></g></g><g class="node default default flowchart-label" id="flowchart-Supervisor-3" data-node="true" data-id="Supervisor" transform="translate(1911.07421875, 182.5)"><rect class="basic label-container" style="" rx="0" ry="0" x="-66.6484375" y="-16.5" width="133.296875" height="33"/><g class="label" style="" transform="translate(-59.1484375, -9)"><rect/><foreignObject width="118.296875" height="18"><div xmlns="http://www.w3.org/1999/xhtml" style="display: inline-block; white-space: nowrap;"><span class="nodeLabel">SupervisorAgent</span></div></foreignObject></g></g><g class="node default default flowchart-label" id="flowchart-Daiyu-5" data-node="true" data-id="Daiyu" transform="translate(604.96875, 265.5)"><rect class="basic label-container" style="" rx="0" ry="0" x="-48.6328125" y="-16.5" width="97.265625" height="33"/><g class="label" style="" transform="translate(-41.1328125, -9)"><rect/><foreignObject width="82.265625" height="18"><div xmlns="http://www.w3.org/1999/xhtml" style="display: inline-block; white-space: nowrap;"><span class="nodeLabel">林黛玉 Agent</span></div></foreignObject></g></g><g class="node default default flowchart-label" id="flowchart-DY1-7" data-node="true" data-id="DY1" transform="translate(66.6484375, 357.5)"><rect class="basic label-container" style="" rx="0" ry="0" x="-66.6484375" y="-16.5" width="133.296875" height="33"/><g class="label" style="" transform="translate(-59.1484375, -9)"><rect/><foreignObject width="118.296875" height="18"><div xmlns="http://www.w3.org/1999/xhtml" style="display: inline-block; white-space: nowrap;"><span class="nodeLabel">compose_poetry</span></div></foreignObject></g></g><g class="node default default flowchart-label" id="flowchart-DY2-9" data-node="true" data-id="DY2" transform="translate(242.828125, 357.5)"><rect class="basic label-container" style="" rx="0" ry="0" x="-59.53125" y="-16.5" width="119.0625" height="33"/><g class="label" style="" transform="translate(-52.03125, -9)"><rect/><foreignObject width="104.0625" height="18"><div xmlns="http://www.w3.org/1999/xhtml" style="display: inline-block; white-space: nowrap;"><span class="nodeLabel">match_couplet</span></div></foreignObject></g></g><g class="node default default flowchart-label" id="flowchart-DY3-11" data-node="true" data-id="DY3" transform="translate(425.6796875, 357.5)"><rect class="basic label-container" style="" rx="0" ry="0" x="-73.3203125" y="-16.5" width="146.640625" height="33"/><g class="label" style="" transform="translate(-65.8203125, -9)"><rect/><foreignObject width="131.640625" height="18"><div xmlns="http://www.w3.org/1999/xhtml" style="display: inline-block; white-space: nowrap;"><span class="nodeLabel">play_poetry_game</span></div></foreignObject></g></g><g class="node default default flowchart-label" id="flowchart-DY4-13" data-node="true" data-id="DY4" transform="translate(604.96875, 357.5)"><rect class="basic label-container" style="" rx="0" ry="0" x="-55.96875" y="-16.5" width="111.9375" height="33"/><g class="label" style="" transform="translate(-48.46875, -9)"><rect/><foreignObject width="96.9375" height="18"><div xmlns="http://www.w3.org/1999/xhtml" style="display: inline-block; white-space: nowrap;"><span class="nodeLabel">review_essay</span></div></foreignObject></g></g><g class="node default default flowchart-label" id="flowchart-DY5-15" data-node="true" data-id="DY5" transform="translate(778.03125, 357.5)"><rect class="basic label-container" style="" rx="0" ry="0" x="-67.09375" y="-16.5" width="134.1875" height="33"/><g class="label" style="" transform="translate(-59.59375, -9)"><rect/><foreignObject width="119.1875" height="18"><div xmlns="http://www.w3.org/1999/xhtml" style="display: inline-block; white-space: nowrap;"><span class="nodeLabel">emotion_support</span></div></foreignObject></g></g><g class="node default default flowchart-label" id="flowchart-DY6-17" data-node="true" data-id="DY6" transform="translate(957.328125, 357.5)"><rect class="basic label-container" style="" rx="0" ry="0" x="-62.203125" y="-16.5" width="124.40625" height="33"/><g class="label" style="" transform="translate(-54.703125, -9)"><rect/><foreignObject width="109.40625" height="18"><div xmlns="http://www.w3.org/1999/xhtml" style="display: inline-block; white-space: nowrap;"><span class="nodeLabel">detect_emotion</span></div></foreignObject></g></g><g class="node default default flowchart-label" id="flowchart-DY7-19" data-node="true" data-id="DY7" transform="translate(1106.8203125, 357.5)"><rect class="basic label-container" style="" rx="0" ry="0" x="-37.2890625" y="-16.5" width="74.578125" height="33"/><g class="label" style="" transform="translate(-29.7890625, -9)"><rect/><foreignObject width="59.578125" height="18"><div xmlns="http://www.w3.org/1999/xhtml" style="display: inline-block; white-space: nowrap;"><span class="nodeLabel">tell_time</span></div></foreignObject></g></g><g class="node default default flowchart-label" id="flowchart-RAG-21" data-node="true" data-id="RAG" transform="translate(1633.16015625, 265.5)"><rect class="basic label-container" style="" rx="0" ry="0" x="-73.75" y="-16.5" width="147.5" height="33"/><g class="label" style="" transform="translate(-66.25, -9)"><rect/><foreignObject width="132.5" height="18"><div xmlns="http://www.w3.org/1999/xhtml" style="display: inline-block; white-space: nowrap;"><span class="nodeLabel">四大名著 RAG Agent</span></div></foreignObject></g></g><g class="node default default flowchart-label" id="flowchart-R1-23" data-node="true" data-id="R1" transform="translate(1225.609375, 357.5)"><rect class="basic label-container" style="" rx="0" ry="0" x="-31.5" y="-16.5" width="63" height="33"/><g class="label" style="" transform="translate(-24, -9)"><rect/><foreignObject width="48" height="18"><div xmlns="http://www.w3.org/1999/xhtml" style="display: inline-block; white-space: nowrap;"><span class="nodeLabel">书籍识别</span></div></foreignObject></g></g><g class="node default default flowchart-label" id="flowchart-R2-25" data-node="true" data-id="R2" transform="translate(1369.2890625, 357.5)"><rect class="basic label-container" style="" rx="0" ry="0" x="-62.1796875" y="-16.5" width="124.359375" height="33"/><g class="label" style="" transform="translate(-54.6796875, -9)"><rect/><foreignObject width="109.359375" height="18"><div xmlns="http://www.w3.org/1999/xhtml" style="display: inline-block; white-space: nowrap;"><span class="nodeLabel">Chroma 向量召回</span></div></foreignObject></g></g><g class="node default default flowchart-label" id="flowchart-R3-27" data-node="true" data-id="R3" transform="translate(1549.4296875, 357.5)"><rect class="basic label-container" style="" rx="0" ry="0" x="-67.9609375" y="-16.5" width="135.921875" height="33"/><g class="label" style="" transform="translate(-60.4609375, -9)"><rect/><foreignObject width="120.921875" height="18"><div xmlns="http://www.w3.org/1999/xhtml" style="display: inline-block; white-space: nowrap;"><span class="nodeLabel">SQLite FTS5 召回</span></div></foreignObject></g></g><g class="node default default flowchart-label" id="flowchart-R4-29" data-node="true" data-id="R4" transform="translate(1716.890625, 357.5)"><rect class="basic label-container" style="" rx="0" ry="0" x="-49.5" y="-16.5" width="99" height="33"/><g class="label" style="" transform="translate(-42, -9)"><rect/><foreignObject width="84" height="18"><div xmlns="http://www.w3.org/1999/xhtml" style="display: inline-block; white-space: nowrap;"><span class="nodeLabel">章节锚点补召回</span></div></foreignObject></g></g><g class="node default default flowchart-label" id="flowchart-R5-31" data-node="true" data-id="R5" transform="translate(1883.9140625, 357.5)"><rect class="basic label-container" style="" rx="0" ry="0" x="-67.5234375" y="-16.5" width="135.046875" height="33"/><g class="label" style="" transform="translate(-60.0234375, -9)"><rect/><foreignObject width="120.046875" height="18"><div xmlns="http://www.w3.org/1999/xhtml" style="display: inline-block; white-space: nowrap;"><span class="nodeLabel">bge-reranker 精排</span></div></foreignObject></g></g><g class="node default default flowchart-label" id="flowchart-R6-33" data-node="true" data-id="R6" transform="translate(2038.9375, 357.5)"><rect class="basic label-container" style="" rx="0" ry="0" x="-37.5" y="-16.5" width="75" height="33"/><g class="label" style="" transform="translate(-30, -9)"><rect/><foreignObject width="60" height="18"><div xmlns="http://www.w3.org/1999/xhtml" style="display: inline-block; white-space: nowrap;"><span class="nodeLabel">带引用生成</span></div></foreignObject></g></g><g class="node default default flowchart-label" id="flowchart-Interview-35" data-node="true" data-id="Interview" transform="translate(2272.71875, 265.5)"><rect class="basic label-container" style="" rx="0" ry="0" x="-54.6328125" y="-16.5" width="109.265625" height="33"/><g class="label" style="" transform="translate(-47.1328125, -9)"><rect/><foreignObject width="94.265625" height="18"><div xmlns="http://www.w3.org/1999/xhtml" style="display: inline-block; white-space: nowrap;"><span class="nodeLabel">模拟面试 Agent</span></div></foreignObject></g></g><g class="node default default flowchart-label" id="flowchart-I1-37" data-node="true" data-id="I1" transform="translate(2157.9375, 357.5)"><rect class="basic label-container" style="" rx="0" ry="0" x="-31.5" y="-16.5" width="63" height="33"/><g class="label" style="" transform="translate(-24, -9)"><rect/><foreignObject width="48" height="18"><div xmlns="http://www.w3.org/1999/xhtml" style="display: inline-block; white-space: nowrap;"><span class="nodeLabel">岗位模拟</span></div></foreignObject></g></g><g class="node default default flowchart-label" id="flowchart-I2-39" data-node="true" data-id="I2" transform="translate(2272.71875, 357.5)"><rect class="basic label-container" style="" rx="0" ry="0" x="-33.28125" y="-16.5" width="66.5625" height="33"/><g class="label" style="" transform="translate(-25.78125, -9)"><rect/><foreignObject width="51.5625" height="18"><div xmlns="http://www.w3.org/1999/xhtml" style="display: inline-block; white-space: nowrap;"><span class="nodeLabel">HR 问答</span></div></foreignObject></g></g><g class="node default default flowchart-label" id="flowchart-I3-41" data-node="true" data-id="I3" transform="translate(2387.5, 357.5)"><rect class="basic label-container" style="" rx="0" ry="0" x="-31.5" y="-16.5" width="63" height="33"/><g class="label" style="" transform="translate(-24, -9)"><rect/><foreignObject width="48" height="18"><div xmlns="http://www.w3.org/1999/xhtml" style="display: inline-block; white-space: nowrap;"><span class="nodeLabel">项目追问</span></div></foreignObject></g></g><g class="node default default flowchart-label" id="flowchart-Assistant-43" data-node="true" data-id="Assistant" transform="translate(2762.01171875, 265.5)"><rect class="basic label-container" style="" rx="0" ry="0" x="-54.6328125" y="-16.5" width="109.265625" height="33"/><g class="label" style="" transform="translate(-47.1328125, -9)"><rect/><foreignObject width="94.265625" height="18"><div xmlns="http://www.w3.org/1999/xhtml" style="display: inline-block; white-space: nowrap;"><span class="nodeLabel">教务助手 Agent</span></div></foreignObject></g></g><g class="node default default flowchart-label" id="flowchart-A1-45" data-node="true" data-id="A1" transform="translate(2512.5, 357.5)"><rect class="basic label-container" style="" rx="0" ry="0" x="-43.5" y="-25.5" width="87" height="51"/><g class="label" style="" transform="translate(-36, -18)"><rect/><foreignObject width="72" height="36"><div xmlns="http://www.w3.org/1999/xhtml" style="display: inline-block; white-space: nowrap;"><span class="nodeLabel">text2sql<br />自然语言问数</span></div></foreignObject></g></g><g class="node default default flowchart-label" id="flowchart-A2-47" data-node="true" data-id="A2" transform="translate(2668.171875, 357.5)"><rect class="basic label-container" style="" rx="0" ry="0" x="-62.171875" y="-25.5" width="124.34375" height="51"/><g class="label" style="" transform="translate(-54.671875, -18)"><rect/><foreignObject width="109.34375" height="36"><div xmlns="http://www.w3.org/1999/xhtml" style="display: inline-block; white-space: nowrap;"><span class="nodeLabel">function_call<br />学生成绩 / 班级统计</span></div></foreignObject></g></g><g class="node default default flowchart-label" id="flowchart-A3-49" data-node="true" data-id="A3" transform="translate(2855.8515625, 357.5)"><rect class="basic label-container" style="" rx="0" ry="0" x="-75.5078125" y="-25.5" width="151.015625" height="51"/><g class="label" style="" transform="translate(-68.0078125, -18)"><rect/><foreignObject width="136.015625" height="36"><div xmlns="http://www.w3.org/1999/xhtml" style="display: inline-block; white-space: nowrap;"><span class="nodeLabel">template<br />通知 / 评语 / 报告 / 班会</span></div></foreignObject></g></g><g class="node default default flowchart-label" id="flowchart-A4-51" data-node="true" data-id="A4" transform="translate(3043.53125, 357.5)"><rect class="basic label-container" style="" rx="0" ry="0" x="-62.171875" y="-25.5" width="124.34375" height="51"/><g class="label" style="" transform="translate(-54.671875, -18)"><rect/><foreignObject width="109.34375" height="36"><div xmlns="http://www.w3.org/1999/xhtml" style="display: inline-block; white-space: nowrap;"><span class="nodeLabel">general<br />学习建议 / 方法解释</span></div></foreignObject></g></g></g></g></g></svg>